{
.appVersion = "3133";
.formatVersion = 3;
DisplayStrings = (
"/nil",
"ø",
"◊",
"＊",
"/newGlyph.001"
);
customParameters = (
{
name = vendorID;
value = WEB3;
},
{
name = panose;
value = (
2,
0,
0,
0,
0,
0,
0,
0,
0,
0
);
},
{
name = unicodeRanges;
value = (
0
);
},
{
name = codePageRanges;
value = (
"1252"
);
},
{
name = fsType;
value = (
2
);
},
{
name = glyphOrder;
value = (
.notdef,
.null,
CR,
space,
one,
two,
three,
four,
five,
six,
seven,
eight,
nine,
zero,
A,
B,
C,
D,
E,
F,
G,
H,
I,
J,
K,
L,
M,
N,
O,
P,
Q,
R,
S,
T,
U,
V,
W,
X,
Y,
Z,
hyphen
);
}
);
date = "2011-09-01 07:45:00 +0000";
familyName = Checksum;
fontMaster = (
{
customParameters = (
{
name = typoAscender;
value = 750;
},
{
name = typoDescender;
value = -250;
},
{
name = typoLineGap;
value = 0;
},
{
name = winAscent;
value = 710;
},
{
name = winDescent;
value = 88;
},
{
name = hheaAscender;
value = 750;
},
{
name = hheaDescender;
value = -250;
},
{
name = strikeoutPosition;
value = 250;
},
{
name = strikeoutSize;
value = 50;
},
{
name = "prep Table Assembly";

glyphs = (
{
glyphname = .notdef;
layers = (
{
layerId = m01;
shapes = (
{
closed = 1;
nodes = (
(560,0,l),
(560,548,l),
(49,548,l),
(49,0,l)
);
},
{
closed = 1;
nodes = (
(507,504,l),
(507,41,l),
(104,41,l),
(104,504,l)
);
}
);
userData = {
assembly = "PUSHW[ ]	/* 1 value pushed */
8 
MDAP[1]	/* MoveDirectAbsPt */
PUSHW[ ]	/* 1 value pushed */
5 
MDAP[1]	/* MoveDirectAbsPt */
PUSHW[ ]	/* 1 value pushed */
8 
SRP0[ ]	/* SetRefPoint0 */
PUSHW[ ]	/* 1 value pushed */
0 
MDRP[10000]	/* MoveDirectRelPt */
PUSHW[ ]	/* 1 value pushed */
0 
MDAP[1]	/* MoveDirectAbsPt */
PUSHW[ ]	/* 1 value pushed */
5 
SRP0[ ]	/* SetRefPoint0 */
PUSHW[ ]	/* 2 values pushed */
2 2 
MIRP[10100]	/* MoveIndirectRelPt */
PUSHW[ ]	/* 1 value pushed */
0 
SRP0[ ]	/* SetRefPoint0 */
PUSHW[ ]	/* 2 values pushed */
7 2 
MIRP[10100]	/* MoveIndirectRelPt */
PUSHW[ ]	/* 1 value pushed */
2 
SRP0[ ]	/* SetRefPoint0 */
PUSHW[ ]	/* 1 value pushed */
9 
MDRP[11100]	/* MoveDirectRelPt */
SVTCA[0]	/* SetFreedomAndProjectionVectorToAxis */
PUSHW[ ]	/* 1 value pushed */
0 
RCVT[ ]	/* ReadCVT */
IF[ ]	/* If */
PUSHW[ ]	/* 1 value pushed */
2 
MDAP[1]	/* MoveDirectAbsPt */
ELSE[ ]	/* Else */
PUSHW[ ]	/* 2 values pushed */
2 3 
MIAP[0]	/* MoveIndirectAbsPt */
EIF[ ]	/* EndIf */
PUSHW[ ]	/* 3 values pushed */
1 6 3 
CALL[ ]	/* CallFunction */
PUSHW[ ]	/* 1 value pushed */
2 
SRP0[ ]	/* SetRefPoint0 */
PUSHW[ ]	/* 1 value pushed */
4 
MDRP[11100]	/* MoveDirectRelPt */
IUP[0]	/* InterpolateUntPts */
IUP[1]	/* InterpolateUntPts */";
};
width = 609;
}
);
note = ".notdef";
},
{
glyphname = one;
layers = (
{
layerId = m01;
shapes = (
{
closed = 1;
nodes = (
(266,85,l),
(141,85,l),
(141,0,l),
(478,0,l),
(478,86,l),
(355,86,l),
(355,706,l),
(311,706,l),
(132,649,l),
(132,557,l),
(266,599,l)
);
}
);
userData = {
assembly = "PUSHW[ ]	/* 3 values pushed */
3 1 3 
CALL[ ]	/* CallFunction */
PUSHW[ ]	/* 1 value pushed */
3 
SRP0[ ]	/* SetRefPoint0 */
PUSHW[ ]	/* 2 values pushed */
9 2 
MIRP[10100]	/* MoveIndirectRelPt */
PUSHW[ ]	/* 3 values pushed */
10 1 3 
SRP1[ ]	/* SetRefPoint1 */
SRP2[ ]	/* SetRefPoint2 */
IP[ ]	/* InterpolatePts */
SVTCA[0]	/* SetFreedomAndProjectionVectorToAxis */
PUSHW[ ]	/* 1 value pushed */
2 
MDAP[1]	/* MoveDirectAbsPt */
PUSHW[ ]	/* 1 value pushed */
0 
RCVT[ ]	/* ReadCVT */
IF[ ]	/* If */
PUSHW[ ]	/* 1 value pushed */
6 
MDAP[1]	/* MoveDirectAbsPt */
ELSE[ ]	/* Else */
PUSHW[ ]	/* 2 values pushed */
6 3 
MIAP[0]	/* MoveIndirectAbsPt */
EIF[ ]	/* EndIf */
PUSHW[ ]	/* 3 values pushed */
0 6 2 
SRP1[ ]	/* SetRefPoint1 */
SRP2[ ]	/* SetRefPoint2 */
IP[ ]	/* InterpolatePts */
PUSHW[ ]	/* 2 values pushed */
4 1 
MIRP[10100]	/* MoveIndirectRelPt */
PUSHW[ ]	/* 1 value pushed */
8 
MDRP[10000]	/* MoveDirectRelPt */
PUSHW[ ]	/* 1 value pushed */
9 
MDRP[10000]	/* MoveDirectRelPt */
PUSHW[ ]	/* 3 values pushed */
10 6 2 
SRP1[ ]	/* SetRefPoint1 */
SRP2[ ]	/* SetRefPoint2 */
IP[ ]	/* InterpolatePts */
IUP[0]	/* InterpolateUntPts */
IUP[1]	/* InterpolateUntPts */";
};
width = 609;
}
);
note = one;
unicode = 49;
},
{
glyphname = two;
layers = (
{
layerId = m01;
shapes = (
{
closed = 1;
nodes = (
(196,546,o),
(205,575,o),
(228,600,o),
(268,617,o),
(300,617,qs),
(328,617,o),
(364,596,o),
(385,560,o),
(391,510,o),
(390,480,qs),
(389,453,o),
(359,395,o),
(312,332,o),
(254,264,o),
(196,191,o),
(142,113,o),
(123,72,q),
(123,0,l),
(486,0,l),
(486,91,l),
(247,91,l),
(255,118,o),
(296,175,o),
(346,234,o),
(400,298,o),
(445,368,o),
(474,444,o),
(475,487,qs),
(475,524,o),
(464,599,o),
(427,660,o),
(357,699,o),
(300,700,qs),
(246,701,o),
(174,665,o),
(132,614,o),
(115,556,o),
(114,535,q),
(196,535,l)
);
}
);
userData = {
assembly = "PUSHW[ ]	/* 4 values pushed */
10 2 28 4 
CALL[ ]	/* CallFunction */
NPUSHW[ ]	/* 5 values pushed */
106 28 122 28 2 
DELTAP1[ ]	/* DeltaExceptionP1 */
NPUSHW[ ]	/* 13 values pushed */
9 28 25 28 41 28 57 28 73 28 89 28 6 
DELTAP1[ ]	/* DeltaExceptionP1 */
PUSHW[ ]	/* 1 value pushed */
10 
SRP0[ ]	/* SetRefPoint0 */
PUSHW[ ]	/* 1 value pushed */
40 
MDRP[11100]	/* MoveDirectRelPt */
SVTCA[0]	/* SetFreedomAndProjectionVectorToAxis */
PUSHW[ ]	/* 1 value pushed */
0 
RCVT[ ]	/* ReadCVT */
IF[ ]	/* If */
PUSHW[ ]	/* 1 value pushed */
19 
MDAP[1]	/* MoveDirectAbsPt */
ELSE[ ]	/* Else */
PUSHW[ ]	/* 2 values pushed */
19 3 
MIAP[0]	/* MoveIndirectAbsPt */
EIF[ ]	/* EndIf */
PUSHW[ ]	/* 4 values pushed */
5 1 33 4 
CALL[ ]	/* CallFunction */
PUSHW[ ]	/* 1 value pushed */
19 
SRP0[ ]	/* SetRefPoint0 */
PUSHW[ ]	/* 2 values pushed */
17 1 
MIRP[10100]	/* MoveIndirectRelPt */
PUSHW[ ]	/* 1 value pushed */
5 
SRP0[ ]	/* SetRefPoint0 */
PUSHW[ ]	/* 2 values pushed */
38 1 
MIRP[10100]	/* MoveIndirectRelPt */
IUP[0]	/* InterpolateUntPts */
IUP[1]	/* InterpolateUntPts */";
};
width = 609;
}
);
note = two;
unicode = 50;
},
{
glyphname = three;
layers = (
{
layerId = m01;
shapes = (
{
closed = 1;
nodes = (
(151,585,o),
(173,594,qs),
(192,602,o),
(245,614,o),
(279,614,qs),
(342,614,o),
(399,555,o),
(399,505,qs),
(399,451,o),
(326,389,o),
(266,389,qs),
(168,389,l),
(168,299,l),
(266,299,ls),
(295,299,o),
(346,286,o),
(383,261,o),
(405,222,o),
(405,196,qs),
(405,142,o),
(340,83,o),
(274,83,qs),
(242,83,o),
(186,96,o),
(165,104,qs),
(140,113,o),
(120,125,q),
(120,29,l),
(135,18,o),
(158,10,qs),
(178,2,o),
(236,-9,o),
(277,-9,qs),
(327,-9,o),
(407,24,o),
(463,80,o),
(493,151,o),
(493,189,qs),
(493,225,o),
(469,280,o),
(430,318,o),
(380,342,o),
(354,348,q),
(381,356,o),
(429,383,o),
(465,425,o),
(486,484,o),
(486,524,qs),
(486,575,o),
(450,643,o),
(393,685,o),
(322,703,o),
(287,703,qs),
(251,703,o),
(195,693,o),
(175,688,qs),
(152,682,o),
(134,674,q),
(134,575,l)
);
}
);
userData = {
assembly = "PUSHW[ ]	/* 4 values pushed */
20 2 50 4 
CALL[ ]	/* CallFunction */
PUSHW[ ]	/* 1 value pushed */
20 
SRP0[ ]	/* SetRefPoint0 */
PUSHW[ ]	/* 1 value pushed */
10 
MDRP[10000]	/* MoveDirectRelPt */
PUSHW[ ]	/* 1 value pushed */
10 
MDAP[1]	/* MoveDirectAbsPt */
NPUSHW[ ]	/* 5 values pushed */
106 50 122 50 2 
DELTAP1[ ]	/* DeltaExceptionP1 */
NPUSHW[ ]	/* 13 values pushed */
9 50 25 50 41 50 57 50 73 50 89 50 6 
DELTAP1[ ]	/* DeltaExceptionP1 */
PUSHW[ ]	/* 1 value pushed */
50 
SRP0[ ]	/* SetRefPoint0 */
PUSHW[ ]	/* 1 value pushed */
39 
MDRP[10000]	/* MoveDirectRelPt */
PUSHW[ ]	/* 1 value pushed */
39 
MDAP[1]	/* MoveDirectAbsPt */
PUSHW[ ]	/* 1 value pushed */
20 
SRP0[ ]	/* SetRefPoint0 */
PUSHW[ ]	/* 1 value pushed */
60 
MDRP[11100]	/* MoveDirectRelPt */
SVTCA[0]	/* SetFreedomAndProjectionVectorToAxis */
PUSHW[ ]	/* 1 value pushed */
0 
RCVT[ ]	/* ReadCVT */
IF[ ]	/* If */
PUSHW[ ]	/* 1 value pushed */
25 
MDAP[1]	/* MoveDirectAbsPt */
ELSE[ ]	/* Else */
PUSHW[ ]	/* 2 values pushed */
25 3 
MIAP[0]	/* MoveIndirectAbsPt */
EIF[ ]	/* EndIf */
PUSHW[ ]	/* 4 values pushed */
5 1 53 4 
CALL[ ]	/* CallFunction */
PUSHW[ ]	/* 4 values pushed */
47 1 44 4 
CALL[ ]	/* CallFunction */
PUSHW[ ]	/* 3 values pushed */
15 44 47 
SRP1[ ]	/* SetRefPoint1 */
SRP2[ ]	/* SetRefPoint2 */
IP[ ]	/* InterpolatePts */
PUSHW[ ]	/* 1 value pushed */
25 
SRP0[ ]	/* SetRefPoint0 */
PUSHW[ ]	/* 2 values pushed */
36 1 
MIRP[10100]	/* MoveIndirectRelPt */
NPUSHW[ ]	/* 13 values pushed */
7 36 23 36 39 36 55 36 71 36 87 36 6 
DELTAP1[ ]	/* DeltaExceptionP1 */
NPUSHW[ ]	/* 5 values pushed */
102 36 118 36 2 
DELTAP1[ ]	/* DeltaExceptionP1 */
IUP[0]	/* InterpolateUntPts */
IUP[1]	/* InterpolateUntPts */";
};
width = 609;
}
);
note = three;
unicode = 51;
},
{
glyphname = four;
layers = (
{
layerId = m01;
shapes = (
{
closed = 1;
nodes = (
(97,256,l),
(97,182,l),
(312,182,l),
(357,181,l),
(357,118,l),
(357,1,l),
(440,1,l),
(440,118,l),
(439,182,l),
(481,182,l),
(516,182,l),
(516,271,l),
(478,271,l),
(441,270,l),
(440,312,l),
(440,694,l),
(349,694,l)
);
},
{
closed = 1;
nodes = (
(358,270,l),
(312,271,l),
(191,271,l),
(360,558,l),
(357,527,l),
(357,311,l)
);
}
);
userData = {
assembly = "PUSHW[ ]	/* 4 values pushed */
9 2 10 4 
CALL[ ]	/* CallFunction */
PUSHW[ ]	/* 1 value pushed */
9 
SRP0[ ]	/* SetRefPoint0 */
PUSHW[ ]	/* 1 value pushed */
0 
MDRP[10000]	/* MoveDirectRelPt */
PUSHW[ ]	/* 1 value pushed */
9 
SRP0[ ]	/* SetRefPoint0 */
PUSHW[ ]	/* 1 value pushed */
2 
MDRP[10000]	/* MoveDirectRelPt */
PUSHW[ ]	/* 1 value pushed */
2 
MDAP[1]	/* MoveDirectAbsPt */
PUSHW[ ]	/* 1 value pushed */
9 
SRP0[ ]	/* SetRefPoint0 */
PUSHW[ ]	/* 1 value pushed */
7 
MDRP[10000]	/* MoveDirectRelPt */
PUSHW[ ]	/* 1 value pushed */
7 
MDAP[1]	/* MoveDirectAbsPt */
PUSHW[ ]	/* 1 value pushed */
10 
SRP0[ ]	/* SetRefPoint0 */
PUSHW[ ]	/* 1 value pushed */
12 
MDRP[10000]	/* MoveDirectRelPt */
PUSHW[ ]	/* 1 value pushed */
10 
SRP0[ ]	/* SetRefPoint0 */
PUSHW[ ]	/* 1 value pushed */
17 
MDRP[10000]	/* MoveDirectRelPt */
PUSHW[ ]	/* 3 values pushed */
18 10 9 
SRP1[ ]	/* SetRefPoint1 */
SRP2[ ]	/* SetRefPoint2 */
IP[ ]	/* InterpolatePts */
PUSHW[ ]	/* 1 value pushed */
10 
SRP0[ ]	/* SetRefPoint0 */
PUSHW[ ]	/* 1 value pushed */
21 
MDRP[10000]	/* MoveDirectRelPt */
PUSHW[ ]	/* 1 value pushed */
21 
MDAP[1]	/* MoveDirectAbsPt */
SVTCA[0]	/* SetFreedomAndProjectionVectorToAxis */
PUSHW[ ]	/* 1 value pushed */
0 
MDAP[1]	/* MoveDirectAbsPt */
PUSHW[ ]	/* 1 value pushed */
0 
RCVT[ ]	/* ReadCVT */
IF[ ]	/* If */
PUSHW[ ]	/* 1 value pushed */
9 
MDAP[1]	/* MoveDirectAbsPt */
ELSE[ ]	/* Else */
PUSHW[ ]	/* 2 values pushed */
9 3 
MIAP[0]	/* MoveIndirectAbsPt */
EIF[ ]	/* EndIf */
PUSHW[ ]	/* 4 values pushed */
4 1 5 4 
CALL[ ]	/* CallFunction */
PUSHW[ ]	/* 1 value pushed */
4 
SRP0[ ]	/* SetRefPoint0 */
PUSHW[ ]	/* 1 value pushed */
2 
MDRP[10000]	/* MoveDirectRelPt */
PUSHW[ ]	/* 1 value pushed */
2 
MDAP[1]	/* MoveDirectAbsPt */
PUSHW[ ]	/* 1 value pushed */
5 
SRP0[ ]	/* SetRefPoint0 */
PUSHW[ ]	/* 1 value pushed */
7 
MDRP[10000]	/* MoveDirectRelPt */
PUSHW[ ]	/* 1 value pushed */
5 
SRP0[ ]	/* SetRefPoint0 */
PUSHW[ ]	/* 1 value pushed */
12 
MDRP[10000]	/* MoveDirectRelPt */
PUSHW[ ]	/* 1 value pushed */
12 
MDAP[1]	/* MoveDirectAbsPt */
PUSHW[ ]	/* 1 value pushed */
5 
SRP0[ ]	/* SetRefPoint0 */
PUSHW[ ]	/* 1 value pushed */
14 
MDRP[10000]	/* MoveDirectRelPt */
PUSHW[ ]	/* 3 values pushed */
18 9 0 
SRP1[ ]	/* SetRefPoint1 */
SRP2[ ]	/* SetRefPoint2 */
IP[ ]	/* InterpolatePts */
PUSHW[ ]	/* 1 value pushed */
4 
SRP0[ ]	/* SetRefPoint0 */
PUSHW[ ]	/* 1 value pushed */
19 
MDRP[10000]	/* MoveDirectRelPt */
PUSHW[ ]	/* 1 value pushed */
4 
SRP0[ ]	/* SetRefPoint0 */
PUSHW[ ]	/* 1 value pushed */
21 
MDRP[10000]	/* MoveDirectRelPt */
PUSHW[ ]	/* 1 value pushed */
21 
MDAP[1]	/* MoveDirectAbsPt */
IUP[0]	/* InterpolateUntPts */
IUP[1]	/* InterpolateUntPts */";
};
width = 609;
}
);
note = four;
unicode = 52;
},
{
glyphname = five;
layers = (
{
layerId = m01;
shapes = (
{
closed = 1;
nodes = (
(127,326,l),
(134,324,o),
(140,322,qs),
(145,320,o),
(154,317,o),
(154,318,q),
(160,324,o),
(185,338,o),
(216,349,o),
(250,355,o),
(266,355,qs),
(328,353,o),
(391,284,o),
(390,226,qs),
(389,184,o),
(342,128,o),
(271,95,o),
(190,80,o),
(154,78,qs),
(146,77,o),
(120,76,o),
(118,76,q),
(113,-10,l),
(139,-10,ls),
(248,-11,o),
(384,40,o),
(459,116,o),
(484,204,o),
(482,240,qs),
(479,291,o),
(445,369,o),
(392,422,o),
(324,449,o),
(287,449,q),
(226,443,l),
(239,609,l),
(453,609,l),
(453,694,l),
(157,694,l)
);
}
);
userData = {
assembly = "PUSHW[ ]	/* 4 values pushed */
9 2 24 4 
CALL[ ]	/* CallFunction */
NPUSHW[ ]	/* 5 values pushed */
106 24 122 24 2 
DELTAP1[ ]	/* DeltaExceptionP1 */
NPUSHW[ ]	/* 13 values pushed */
9 24 25 24 41 24 57 24 73 24 89 24 6 
DELTAP1[ ]	/* DeltaExceptionP1 */
PUSHW[ ]	/* 1 value pushed */
9 
SRP0[ ]	/* SetRefPoint0 */
PUSHW[ ]	/* 1 value pushed */
40 
MDRP[11100]	/* MoveDirectRelPt */
SVTCA[0]	/* SetFreedomAndProjectionVectorToAxis */
PUSHW[ ]	/* 1 value pushed */
0 
RCVT[ ]	/* ReadCVT */
IF[ ]	/* If */
PUSHW[ ]	/* 1 value pushed */
14 
MDAP[1]	/* MoveDirectAbsPt */
ELSE[ ]	/* Else */
PUSHW[ ]	/* 2 values pushed */
14 3 
MIAP[0]	/* MoveIndirectAbsPt */
EIF[ ]	/* EndIf */
PUSHW[ ]	/* 4 values pushed */
0 1 1 4 
CALL[ ]	/* CallFunction */
PUSHW[ ]	/* 4 values pushed */
4 1 27 4 
CALL[ ]	/* CallFunction */
PUSHW[ ]	/* 1 value pushed */
14 
SRP0[ ]	/* SetRefPoint0 */
PUSHW[ ]	/* 2 values pushed */
19 1 
MIRP[10100]	/* MoveIndirectRelPt */
NPUSHW[ ]	/* 13 values pushed */
7 19 23 19 39 19 55 19 71 19 87 19 6 
DELTAP1[ ]	/* DeltaExceptionP1 */
NPUSHW[ ]	/* 5 values pushed */
102 19 118 19 2 
DELTAP1[ ]	/* DeltaExceptionP1 */
IUP[0]	/* InterpolateUntPts */
IUP[1]	/* InterpolateUntPts */";
};
width = 609;
}
);
note = five;
unicode = 53;
},
{
glyphname = six;
layers = (
{
layerId = m01;
shapes = (
{
closed = 1;
nodes = (
(202,644,o),
(141,542,o),
(111,406,o),
(111,330,qs),
(111,259,o),
(134,135,o),
(182,44,o),
(255,-8,o),
(305,-8,qs),
(345,-8,o),
(415,24,o),
(467,86,o),
(498,175,o),
(498,231,qs),
(498,280,o),
(474,363,o),
(429,423,o),
(364,456,o),
(323,456,qs),
(278,456,o),
(218,407,o),
(200,373,q),
(203,425,o),
(224,516,o),
(262,582,o),
(318,620,o),
(356,620,qs),
(382,620,o),
(422,611,o),
(436,606,qs),
(452,600,o),
(464,593,q),
(464,686,l),
(455,690,o),
(440,694,qs),
(427,697,o),
(386,703,o),
(357,703,qs),
(295,703,o)
);
},
{
closed = 1;
nodes = (
(216,296,o),
(240,340,o),
(280,367,o),
(307,367,qs),
(361,367,o),
(412,291,o),
(412,230,qs),
(412,190,o),
(395,134,o),
(366,98,o),
(330,81,o),
(311,81,qs),
(271,81,o),
(218,141,o),
(209,206,qs),
(206,237,o)
);
}
);
userData = {
assembly = "PUSHW[ ]	/* 1 value pushed */
55 
MDAP[1]	/* MoveDirectAbsPt */
PUSHW[ ]	/* 1 value pushed */
47 
MDAP[1]	/* MoveDirectAbsPt */
NPUSHW[ ]	/* 5 values pushed */
106 47 122 47 2 
DELTAP1[ ]	/* DeltaExceptionP1 */
NPUSHW[ ]	/* 13 values pushed */
9 47 25 47 41 47 57 47 73 47 89 47 6 
DELTAP1[ ]	/* DeltaExceptionP1 */
PUSHW[ ]	/* 2 values pushed */
24 2 
MIRP[10100]	/* MoveIndirectRelPt */
PUSHW[ ]	/* 3 values pushed */
6 47 24 
SRP1[ ]	/* SetRefPoint1 */
SRP2[ ]	/* SetRefPoint2 */
IP[ ]	/* InterpolatePts */
PUSHW[ ]	/* 1 value pushed */
55 
SRP0[ ]	/* SetRefPoint0 */
PUSHW[ ]	/* 1 value pushed */
34 
MDRP[10000]	/* MoveDirectRelPt */
PUSHW[ ]	/* 1 value pushed */
34 
MDAP[1]	/* MoveDirectAbsPt */
PUSHW[ ]	/* 2 values pushed */
16 2 
MIRP[10100]	/* MoveIndirectRelPt */
NPUSHW[ ]	/* 13 values pushed */
6 16 22 16 38 16 54 16 70 16 86 16 6 
DELTAP1[ ]	/* DeltaExceptionP1 */
NPUSHW[ ]	/* 5 values pushed */
101 16 117 16 2 
DELTAP1[ ]	/* DeltaExceptionP1 */
PUSHW[ ]	/* 1 value pushed */
24 
SRP0[ ]	/* SetRefPoint0 */
PUSHW[ ]	/* 1 value pushed */
56 
MDRP[11100]	/* MoveDirectRelPt */
SVTCA[0]	/* SetFreedomAndProjectionVectorToAxis */
PUSHW[ ]	/* 1 value pushed */
0 
RCVT[ ]	/* ReadCVT */
IF[ ]	/* If */
PUSHW[ ]	/* 1 value pushed */
29 
MDAP[1]	/* MoveDirectAbsPt */
ELSE[ ]	/* Else */
PUSHW[ ]	/* 2 values pushed */
29 3 
MIAP[0]	/* MoveIndirectAbsPt */
EIF[ ]	/* EndIf */
PUSHW[ ]	/* 4 values pushed */
0 1 11 4 
CALL[ ]	/* CallFunction */
PUSHW[ ]	/* 4 values pushed */
19 1 50 4 
CALL[ ]	/* CallFunction */
PUSHW[ ]	/* 3 values pushed */
16 50 19 
SRP1[ ]	/* SetRefPoint1 */
SRP2[ ]	/* SetRefPoint2 */
IP[ ]	/* InterpolatePts */
PUSHW[ ]	/* 1 value pushed */
29 
SRP0[ ]	/* SetRefPoint0 */
PUSHW[ ]	/* 2 values pushed */
42 1 
MIRP[10100]	/* MoveIndirectRelPt */
NPUSHW[ ]	/* 13 values pushed */
7 42 23 42 39 42 55 42 71 42 87 42 6 
DELTAP1[ ]	/* DeltaExceptionP1 */
NPUSHW[ ]	/* 5 values pushed */
102 42 118 42 2 
DELTAP1[ ]	/* DeltaExceptionP1 */
IUP[0]	/* InterpolateUntPts */
IUP[1]	/* InterpolateUntPts */";
};
width = 609;
}
);
note = six;
unicode = 54;
},
{
glyphname = seven;
layers = (
{
layerId = m01;
shapes = (
{
closed = 1;
nodes = (
(413,604,l),
(169,0,l),
(256,0,l),
(504,611,l),
(504,695,l),
(147,695,l),
(147,604,l)
);
}
);
userData = {
assembly = "SVTCA[0]	/* SetFreedomAndProjectionVectorToAxis */
PUSHW[ ]	/* 1 value pushed */
0 
RCVT[ ]	/* ReadCVT */
IF[ ]	/* If */
PUSHW[ ]	/* 1 value pushed */
3 
MDAP[1]	/* MoveDirectAbsPt */
ELSE[ ]	/* Else */
PUSHW[ ]	/* 2 values pushed */
3 3 
MIAP[0]	/* MoveIndirectAbsPt */
EIF[ ]	/* EndIf */
PUSHW[ ]	/* 4 values pushed */
1 1 5 4 
CALL[ ]	/* CallFunction */
IUP[0]	/* InterpolateUntPts */
IUP[1]	/* InterpolateUntPts */";
};
width = 609;
}
);
note = seven;
unicode = 55;
},
{
glyphname = eight;
layers = (
{
layerId = m01;
shapes = (
{
closed = 1;
nodes = (
(109,66,o),
(172,17,o),
(255,-7,o),
(301,-7,qs),
(342,-7,o),
(425,18,o),
(491,69,o),
(533,147,o),
(533,200,qs),
(533,231,o),
(512,293,o),
(473,349,o),
(416,393,o),
(381,407,q),
(429,437,o),
(468,491,o),
(473,528,qs),
(478,559,o),
(466,623,o),
(426,676,o),
(355,710,o),
(300,710,qs),
(246,710,o),
(174,674,o),
(133,620,o),
(121,557,o),
(126,529,qs),
(133,490,o),
(176,435,o),
(223,404,q),
(149,362,o),
(71,253,o),
(71,192,qs),
(71,141,o)
);
},
{
closed = 1;
nodes = (
(193,287,o),
(235,323,o),
(282,348,o),
(300,359,q),
(324,348,o),
(374,324,o),
(415,289,o),
(442,241,o),
(442,205,qs),
(442,175,o),
(420,128,o),
(382,95,o),
(332,78,o),
(304,78,qs),
(275,78,o),
(224,94,o),
(186,126,o),
(164,172,o),
(164,202,qs),
(164,238,o)
);
},
{
closed = 1;
nodes = (
(255,630,o),
(300,630,qs),
(345,630,o),
(392,584,o),
(392,547,qs),
(392,524,o),
(373,492,o),
(345,468,o),
(314,448,o),
(301,438,q),
(286,448,o),
(254,468,o),
(227,493,o),
(210,526,o),
(210,549,qs),
(210,586,o)
);
}
);
userData = {
assembly = "PUSHW[ ]	/* 1 value pushed */
70 
MDAP[1]	/* MoveDirectAbsPt */
PUSHW[ ]	/* 1 value pushed */
44 
MDAP[1]	/* MoveDirectAbsPt */
PUSHW[ ]	/* 1 value pushed */
70 
SRP0[ ]	/* SetRefPoint0 */
PUSHW[ ]	/* 1 value pushed */
0 
MDRP[10000]	/* MoveDirectRelPt */
PUSHW[ ]	/* 1 value pushed */
0 
MDAP[1]	/* MoveDirectAbsPt */
NPUSHW[ ]	/* 5 values pushed */
106 44 122 44 2 
DELTAP1[ ]	/* DeltaExceptionP1 */
NPUSHW[ ]	/* 13 values pushed */
9 44 25 44 41 44 57 44 73 44 89 44 6 
DELTAP1[ ]	/* DeltaExceptionP1 */
PUSHW[ ]	/* 1 value pushed */
44 
SRP0[ ]	/* SetRefPoint0 */
PUSHW[ ]	/* 2 values pushed */
24 2 
MIRP[10100]	/* MoveIndirectRelPt */
PUSHW[ ]	/* 3 values pushed */
3 0 24 
SRP1[ ]	/* SetRefPoint1 */
SRP2[ ]	/* SetRefPoint2 */
IP[ ]	/* InterpolatePts */
PUSHW[ ]	/* 3 values pushed */
19 0 24 
SRP1[ ]	/* SetRefPoint1 */
SRP2[ ]	/* SetRefPoint2 */
IP[ ]	/* InterpolatePts */
PUSHW[ ]	/* 1 value pushed */
0 
SRP0[ ]	/* SetRefPoint0 */
PUSHW[ ]	/* 2 values pushed */
34 2 
MIRP[10100]	/* MoveIndirectRelPt */
NPUSHW[ ]	/* 13 values pushed */
6 34 22 34 38 34 54 34 70 34 86 34 6 
DELTAP1[ ]	/* DeltaExceptionP1 */
NPUSHW[ ]	/* 5 values pushed */
101 34 117 34 2 
DELTAP1[ ]	/* DeltaExceptionP1 */
PUSHW[ ]	/* 1 value pushed */
24 
SRP0[ ]	/* SetRefPoint0 */
PUSHW[ ]	/* 1 value pushed */
71 
MDRP[11100]	/* MoveDirectRelPt */
SVTCA[0]	/* SetFreedomAndProjectionVectorToAxis */
PUSHW[ ]	/* 1 value pushed */
0 
RCVT[ ]	/* ReadCVT */
IF[ ]	/* If */
PUSHW[ ]	/* 1 value pushed */
29 
MDAP[1]	/* MoveDirectAbsPt */
ELSE[ ]	/* Else */
PUSHW[ ]	/* 2 values pushed */
29 3 
MIAP[0]	/* MoveIndirectAbsPt */
EIF[ ]	/* EndIf */
PUSHW[ ]	/* 4 values pushed */
11 1 67 4 
CALL[ ]	/* CallFunction */
PUSHW[ ]	/* 1 value pushed */
29 
SRP0[ ]	/* SetRefPoint0 */
PUSHW[ ]	/* 2 values pushed */
39 1 
MIRP[10100]	/* MoveIndirectRelPt */
NPUSHW[ ]	/* 13 values pushed */
7 39 23 39 39 39 55 39 71 39 87 39 6 
DELTAP1[ ]	/* DeltaExceptionP1 */
NPUSHW[ ]	/* 5 values pushed */
102 39 118 39 2 
DELTAP1[ ]	/* DeltaExceptionP1 */
IUP[0]	/* InterpolateUntPts */
IUP[1]	/* InterpolateUntPts */";
};
width = 609;
}
);
note = eight;
unicode = 56;
},
{
glyphname = nine;
layers = (
{
layerId = m01;
shapes = (
{
closed = 1;
nodes = (
(407,51,o),
(468,153,o),
(498,288,o),
(498,365,qs),
(498,436,o),
(475,560,o),
(427,651,o),
(354,703,o),
(304,703,qs),
(264,703,o),
(194,670,o),
(141,609,o),
(111,520,o),
(111,464,qs),
(111,415,o),
(135,332,o),
(178,272,o),
(240,239,o),
(279,239,qs),
(328,239,o),
(391,297,o),
(409,338,q),
(408,282,o),
(388,187,o),
(350,119,o),
(293,81,o),
(254,81,qs),
(228,81,o),
(186,92,o),
(170,99,qs),
(152,107,o),
(137,118,q),
(137,19,l),
(149,11,o),
(166,5,qs),
(180,0,o),
(223,-8,o),
(252,-8,qs),
(314,-8,o)
);
},
{
closed = 1;
nodes = (
(190,404,o),
(190,465,qs),
(190,505,o),
(208,561,o),
(237,597,o),
(274,614,o),
(294,614,qs),
(334,614,o),
(389,553,o),
(402,484,q),
(404,460,o),
(393,405,o),
(367,358,o),
(326,328,o),
(298,328,qs),
(243,328,o)
);
}
);
userData = {
assembly = "PUSHW[ ]	/* 1 value pushed */
55 
MDAP[1]	/* MoveDirectAbsPt */
PUSHW[ ]	/* 1 value pushed */
16 
MDAP[1]	/* MoveDirectAbsPt */
PUSHW[ ]	/* 1 value pushed */
55 
SRP0[ ]	/* SetRefPoint0 */
PUSHW[ ]	/* 1 value pushed */
24 
MDRP[10000]	/* MoveDirectRelPt */
PUSHW[ ]	/* 1 value pushed */
24 
MDAP[1]	/* MoveDirectAbsPt */
PUSHW[ ]	/* 2 values pushed */
52 2 
MIRP[10100]	/* MoveIndirectRelPt */
NPUSHW[ ]	/* 13 values pushed */
6 52 22 52 38 52 54 52 70 52 86 52 6 
DELTAP1[ ]	/* DeltaExceptionP1 */
NPUSHW[ ]	/* 5 values pushed */
101 52 117 52 2 
DELTAP1[ ]	/* DeltaExceptionP1 */
PUSHW[ ]	/* 3 values pushed */
6 24 52 
SRP1[ ]	/* SetRefPoint1 */
SRP2[ ]	/* SetRefPoint2 */
IP[ ]	/* InterpolatePts */
NPUSHW[ ]	/* 5 values pushed */
106 16 122 16 2 
DELTAP1[ ]	/* DeltaExceptionP1 */
NPUSHW[ ]	/* 13 values pushed */
9 16 25 16 41 16 57 16 73 16 89 16 6 
DELTAP1[ ]	/* DeltaExceptionP1 */
PUSHW[ ]	/* 1 value pushed */
16 
SRP0[ ]	/* SetRefPoint0 */
PUSHW[ ]	/* 2 values pushed */
34 2 
MIRP[10100]	/* MoveIndirectRelPt */
PUSHW[ ]	/* 1 value pushed */
16 
SRP0[ ]	/* SetRefPoint0 */
PUSHW[ ]	/* 1 value pushed */
44 
MDRP[10000]	/* MoveDirectRelPt */
PUSHW[ ]	/* 1 value pushed */
44 
MDAP[1]	/* MoveDirectAbsPt */
PUSHW[ ]	/* 1 value pushed */
34 
SRP0[ ]	/* SetRefPoint0 */
PUSHW[ ]	/* 1 value pushed */
56 
MDRP[11100]	/* MoveDirectRelPt */
SVTCA[0]	/* SetFreedomAndProjectionVectorToAxis */
PUSHW[ ]	/* 1 value pushed */
0 
RCVT[ ]	/* ReadCVT */
IF[ ]	/* If */
PUSHW[ ]	/* 1 value pushed */
0 
MDAP[1]	/* MoveDirectAbsPt */
ELSE[ ]	/* Else */
PUSHW[ ]	/* 2 values pushed */
0 3 
MIAP[0]	/* MoveIndirectAbsPt */
EIF[ ]	/* EndIf */
PUSHW[ ]	/* 4 values pushed */
29 1 47 4 
CALL[ ]	/* CallFunction */
PUSHW[ ]	/* 4 values pushed */
39 1 19 4 
CALL[ ]	/* CallFunction */
PUSHW[ ]	/* 1 value pushed */
0 
SRP0[ ]	/* SetRefPoint0 */
PUSHW[ ]	/* 2 values pushed */
11 1 
MIRP[10100]	/* MoveIndirectRelPt */
NPUSHW[ ]	/* 13 values pushed */
7 11 23 11 39 11 55 11 71 11 87 11 6 
DELTAP1[ ]	/* DeltaExceptionP1 */
NPUSHW[ ]	/* 5 values pushed */
102 11 118 11 2 
DELTAP1[ ]	/* DeltaExceptionP1 */
IUP[0]	/* InterpolateUntPts */
IUP[1]	/* InterpolateUntPts */";
};
width = 609;
}
);
note = nine;
unicode = 57;
},
{
glyphname = zero;
layers = (
{
layerId = m01;
shapes = (
{
closed = 1;
nodes = (
(123,143,o),
(167,45,o),
(244,-11,o),
(304,-11,qs),
(364,-11,o),
(441,45,o),
(486,143,o),
(503,273,o),
(503,348,qs),
(503,423,o),
(485,553,o),
(440,650,o),
(363,706,o),
(304,706,qs),
(245,706,o),
(168,650,o),
(123,553,o),
(106,423,o),
(106,348,qs),
(106,273,o)
);
},
{
closed = 1;
nodes = (
(199,500,o),
(221,573,o),
(266,616,o),
(304,616,qs),
(341,616,o),
(385,573,o),
(408,500,o),
(415,402,o),
(415,348,qs),
(415,294,o),
(407,197,o),
(384,124,o),
(340,81,o),
(304,81,qs),
(268,81,o),
(224,124,o),
(201,197,o),
(193,294,o),
(193,348,qs),
(193,402,o)
);
}
);
userData = {
assembly = "PUSHW[ ]	/* 1 value pushed */
40 
MDAP[1]	/* MoveDirectAbsPt */
PUSHW[ ]	/* 1 value pushed */
30 
MDAP[1]	/* MoveDirectAbsPt */
PUSHW[ ]	/* 1 value pushed */
40 
SRP0[ ]	/* SetRefPoint0 */
PUSHW[ ]	/* 1 value pushed */
0 
MDRP[10000]	/* MoveDirectRelPt */
PUSHW[ ]	/* 1 value pushed */
0 
MDAP[1]	/* MoveDirectAbsPt */
NPUSHW[ ]	/* 5 values pushed */
106 30 122 30 2 
DELTAP1[ ]	/* DeltaExceptionP1 */
NPUSHW[ ]	/* 13 values pushed */
9 30 25 30 41 30 57 30 73 30 89 30 6 
DELTAP1[ ]	/* DeltaExceptionP1 */
PUSHW[ ]	/* 1 value pushed */
30 
SRP0[ ]	/* SetRefPoint0 */
PUSHW[ ]	/* 2 values pushed */
10 2 
MIRP[10100]	/* MoveIndirectRelPt */
PUSHW[ ]	/* 1 value pushed */
0 
SRP0[ ]	/* SetRefPoint0 */
PUSHW[ ]	/* 2 values pushed */
20 2 
MIRP[10100]	/* MoveIndirectRelPt */
NPUSHW[ ]	/* 13 values pushed */
6 20 22 20 38 20 54 20 70 20 86 20 6 
DELTAP1[ ]	/* DeltaExceptionP1 */
NPUSHW[ ]	/* 5 values pushed */
101 20 117 20 2 
DELTAP1[ ]	/* DeltaExceptionP1 */
PUSHW[ ]	/* 1 value pushed */
10 
SRP0[ ]	/* SetRefPoint0 */
PUSHW[ ]	/* 1 value pushed */
41 
MDRP[11100]	/* MoveDirectRelPt */
SVTCA[0]	/* SetFreedomAndProjectionVectorToAxis */
PUSHW[ ]	/* 1 value pushed */
0 
RCVT[ ]	/* ReadCVT */
IF[ ]	/* If */
PUSHW[ ]	/* 1 value pushed */
15 
MDAP[1]	/* MoveDirectAbsPt */
ELSE[ ]	/* Else */
PUSHW[ ]	/* 2 values pushed */
15 3 
MIAP[0]	/* MoveIndirectAbsPt */
EIF[ ]	/* EndIf */
PUSHW[ ]	/* 4 values pushed */
5 1 35 4 
CALL[ ]	/* CallFunction */
PUSHW[ ]	/* 1 value pushed */
15 
SRP0[ ]	/* SetRefPoint0 */
PUSHW[ ]	/* 2 values pushed */
25 1 
MIRP[10100]	/* MoveIndirectRelPt */
NPUSHW[ ]	/* 13 values pushed */
7 25 23 25 39 25 55 25 71 25 87 25 6 
DELTAP1[ ]	/* DeltaExceptionP1 */
NPUSHW[ ]	/* 5 values pushed */
102 25 118 25 2 
DELTAP1[ ]	/* DeltaExceptionP1 */
IUP[0]	/* InterpolateUntPts */
IUP[1]	/* InterpolateUntPts */";
};
width = 609;
}
);
note = zero;
unicode = 48;
},
{
glyphname = A;
layers = (
{
layerId = m01;
shapes = (
{
closed = 1;
nodes = (
(267,664,l),
(43,0,l),
(138,0,l),
(150,37,o),
(174,115,o),
(186,152,q),
(422,152,l),
(472,0,l),
(567,0,l),
(343,664,l)
);
},
{
closed = 1;
nodes = (
(296,491,o),
(303,515,o),
(305,526,q),
(307,515,o),
(314,493,o),
(317,482,qs),
(395,239,l),
(215,239,l),
(293,482,ls)
);
}
);
userData = {
assembly = "SVTCA[0]	/* SetFreedomAndProjectionVectorToAxis */
PUSHW[ ]	/* 1 value pushed */
0 
RCVT[ ]	/* ReadCVT */
IF[ ]	/* If */
PUSHW[ ]	/* 1 value pushed */
8 
MDAP[1]	/* MoveDirectAbsPt */
ELSE[ ]	/* Else */
PUSHW[ ]	/* 2 values pushed */
8 5 
MIAP[0]	/* MoveIndirectAbsPt */
EIF[ ]	/* EndIf */
PUSHW[ ]	/* 1 value pushed */
0 
RCVT[ ]	/* ReadCVT */
IF[ ]	/* If */
PUSHW[ ]	/* 1 value pushed */
0 
MDAP[1]	/* MoveDirectAbsPt */
ELSE[ ]	/* Else */
PUSHW[ ]	/* 2 values pushed */
0 3 
MIAP[0]	/* MoveIndirectAbsPt */
EIF[ ]	/* EndIf */
PUSHW[ ]	/* 1 value pushed */
0 
RCVT[ ]	/* ReadCVT */
IF[ ]	/* If */
PUSHW[ ]	/* 1 value pushed */
6 
MDAP[1]	/* MoveDirectAbsPt */
ELSE[ ]	/* Else */
PUSHW[ ]	/* 2 values pushed */
6 3 
MIAP[0]	/* MoveIndirectAbsPt */
EIF[ ]	/* EndIf */
PUSHW[ ]	/* 4 values pushed */
11 1 2 4 
CALL[ ]	/* CallFunction */
PUSHW[ ]	/* 3 values pushed */
15 0 8 
SRP1[ ]	/* SetRefPoint1 */
SRP2[ ]	/* SetRefPoint2 */
IP[ ]	/* InterpolatePts */
IUP[0]	/* InterpolateUntPts */
IUP[1]	/* InterpolateUntPts */";
};
width = 609;
}
);
note = A;
unicode = 65;
},
{
glyphname = B;
layers = (
{
layerId = m01;
shapes = (
{
closed = 1;
nodes = (
(175,-2,l),
(278,-2,ls),
(325,-3,o),
(408,18,o),
(469,64,o),
(504,138,o),
(504,191,qs),
(504,223,o),
(481,272,o),
(447,309,o),
(407,336,o),
(390,346,q),
(435,365,o),
(477,440,o),
(477,491,qs),
(477,527,o),
(448,590,o),
(394,636,o),
(316,663,o),
(268,664,qs),
(121,661,l),
(121,-2,l)
);
},
{
closed = 1;
nodes = (
(345,277,o),
(387,251,o),
(415,212,o),
(415,186,qs),
(415,156,o),
(393,114,o),
(355,89,o),
(304,77,o),
(276,77,qs),
(260,77,o),
(221,77,o),
(204,78,q),
(204,294,l),
(221,295,o),
(258,293,o),
(276,292,qs),
(297,291,o)
);
},
{
closed = 1;
nodes = (
(319,581,o),
(391,523,o),
(391,470,qs),
(391,443,o),
(365,405,o),
(321,381,o),
(262,371,o),
(229,371,qs),
(204,371,l),
(204,582,l),
(262,583,ls)
);
}
);
userData = {
assembly = "PUSHW[ ]	/* 4 values pushed */
39 2 0 4 
CALL[ ]	/* CallFunction */
PUSHW[ ]	/* 4 values pushed */
6 2 46 4 
CALL[ ]	/* CallFunction */
PUSHW[ ]	/* 1 value pushed */
6 
SRP0[ ]	/* SetRefPoint0 */
PUSHW[ ]	/* 2 values pushed */
34 2 
MIRP[10100]	/* MoveIndirectRelPt */
PUSHW[ ]	/* 2 values pushed */
14 2 
MIRP[10100]	/* MoveIndirectRelPt */
PUSHW[ ]	/* 3 values pushed */
9 0 14 
SRP1[ ]	/* SetRefPoint1 */
SRP2[ ]	/* SetRefPoint2 */
IP[ ]	/* InterpolatePts */
PUSHW[ ]	/* 1 value pushed */
39 
SRP0[ ]	/* SetRefPoint0 */
PUSHW[ ]	/* 1 value pushed */
25 
MDRP[10000]	/* MoveDirectRelPt */
NPUSHW[ ]	/* 5 values pushed */
106 46 122 46 2 
DELTAP1[ ]	/* DeltaExceptionP1 */
NPUSHW[ ]	/* 13 values pushed */
9 46 25 46 41 46 57 46 73 46 89 46 6 
DELTAP1[ ]	/* DeltaExceptionP1 */
PUSHW[ ]	/* 1 value pushed */
6 
SRP0[ ]	/* SetRefPoint0 */
PUSHW[ ]	/* 1 value pushed */
51 
MDRP[11100]	/* MoveDirectRelPt */
SVTCA[0]	/* SetFreedomAndProjectionVectorToAxis */
PUSHW[ ]	/* 1 value pushed */
0 
RCVT[ ]	/* ReadCVT */
IF[ ]	/* If */
PUSHW[ ]	/* 1 value pushed */
0 
MDAP[1]	/* MoveDirectAbsPt */
ELSE[ ]	/* Else */
PUSHW[ ]	/* 2 values pushed */
0 5 
MIAP[0]	/* MoveIndirectAbsPt */
EIF[ ]	/* EndIf */
PUSHW[ ]	/* 1 value pushed */
0 
RCVT[ ]	/* ReadCVT */
IF[ ]	/* If */
PUSHW[ ]	/* 1 value pushed */
19 
MDAP[1]	/* MoveDirectAbsPt */
ELSE[ ]	/* Else */
PUSHW[ ]	/* 2 values pushed */
19 3 
MIAP[0]	/* MoveIndirectAbsPt */
EIF[ ]	/* EndIf */
PUSHW[ ]	/* 1 value pushed */
0 
RCVT[ ]	/* ReadCVT */
IF[ ]	/* If */
PUSHW[ ]	/* 1 value pushed */
21 
MDAP[1]	/* MoveDirectAbsPt */
ELSE[ ]	/* Else */
PUSHW[ ]	/* 2 values pushed */
21 3 
MIAP[0]	/* MoveIndirectAbsPt */
EIF[ ]	/* EndIf */
PUSHW[ ]	/* 4 values pushed */
41 1 22 4 
CALL[ ]	/* CallFunction */
PUSHW[ ]	/* 3 values pushed */
9 22 41 
SRP1[ ]	/* SetRefPoint1 */
SRP2[ ]	/* SetRefPoint2 */
IP[ ]	/* InterpolatePts */
PUSHW[ ]	/* 1 value pushed */
22 
SRP0[ ]	/* SetRefPoint0 */
PUSHW[ ]	/* 1 value pushed */
25 
MDRP[10000]	/* MoveDirectRelPt */
PUSHW[ ]	/* 1 value pushed */
25 
MDAP[1]	/* MoveDirectAbsPt */
PUSHW[ ]	/* 1 value pushed */
19 
SRP0[ ]	/* SetRefPoint0 */
PUSHW[ ]	/* 2 values pushed */
26 1 
MIRP[10100]	/* MoveIndirectRelPt */
PUSHW[ ]	/* 1 value pushed */
29 
MDRP[10000]	/* MoveDirectRelPt */
PUSHW[ ]	/* 1 value pushed */
0 
SRP0[ ]	/* SetRefPoint0 */
PUSHW[ ]	/* 2 values pushed */
39 1 
MIRP[10100]	/* MoveIndirectRelPt */
IUP[0]	/* InterpolateUntPts */
IUP[1]	/* InterpolateUntPts */";
};
width = 609;
}
);
note = B;
unicode = 66;
},
{
glyphname = C;
layers = (
{
layerId = m01;
shapes = (
{
closed = 1;
nodes = (
(189,629,o),
(117,540,o),
(79,412,o),
(79,332,qs),
(79,251,o),
(118,123,o),
(189,34,o),
(291,-13,o),
(354,-13,qs),
(396,-13,o),
(454,0,o),
(474,8,qs),
(496,17,o),
(511,29,q),
(511,129,l),
(496,114,o),
(475,103,qs),
(457,93,o),
(404,78,o),
(369,78,qs),
(273,78,o),
(166,206,o),
(166,331,qs),
(166,401,o),
(190,496,o),
(238,555,o),
(311,581,o),
(359,581,qs),
(388,581,o),
(440,571,o),
(459,566,qs),
(481,559,o),
(500,551,q),
(500,649,l),
(484,656,o),
(463,662,qs),
(445,667,o),
(391,676,o),
(356,676,qs),
(292,676,o)
);
}
);
userData = {
assembly = "PUSHW[ ]	/* 4 values pushed */
16 2 35 4 
CALL[ ]	/* CallFunction */
NPUSHW[ ]	/* 13 values pushed */
6 16 22 16 38 16 54 16 70 16 86 16 6 
DELTAP1[ ]	/* DeltaExceptionP1 */
NPUSHW[ ]	/* 5 values pushed */
101 16 117 16 2 
DELTAP1[ ]	/* DeltaExceptionP1 */
SVTCA[0]	/* SetFreedomAndProjectionVectorToAxis */
PUSHW[ ]	/* 1 value pushed */
0 
RCVT[ ]	/* ReadCVT */
IF[ ]	/* If */
PUSHW[ ]	/* 1 value pushed */
0 
MDAP[1]	/* MoveDirectAbsPt */
ELSE[ ]	/* Else */
PUSHW[ ]	/* 2 values pushed */
0 5 
MIAP[0]	/* MoveIndirectAbsPt */
EIF[ ]	/* EndIf */
PUSHW[ ]	/* 1 value pushed */
0 
RCVT[ ]	/* ReadCVT */
IF[ ]	/* If */
PUSHW[ ]	/* 1 value pushed */
30 
MDAP[1]	/* MoveDirectAbsPt */
ELSE[ ]	/* Else */
PUSHW[ ]	/* 2 values pushed */
30 3 
MIAP[0]	/* MoveIndirectAbsPt */
EIF[ ]	/* EndIf */
PUSHW[ ]	/* 3 values pushed */
6 30 0 
SRP1[ ]	/* SetRefPoint1 */
SRP2[ ]	/* SetRefPoint2 */
IP[ ]	/* InterpolatePts */
PUSHW[ ]	/* 1 value pushed */
0 
SRP0[ ]	/* SetRefPoint0 */
PUSHW[ ]	/* 2 values pushed */
11 1 
MIRP[10100]	/* MoveIndirectRelPt */
NPUSHW[ ]	/* 5 values pushed */
105 11 121 11 2 
DELTAP1[ ]	/* DeltaExceptionP1 */
NPUSHW[ ]	/* 13 values pushed */
8 11 24 11 40 11 56 11 72 11 88 11 6 
DELTAP1[ ]	/* DeltaExceptionP1 */
PUSHW[ ]	/* 1 value pushed */
30 
SRP0[ ]	/* SetRefPoint0 */
PUSHW[ ]	/* 2 values pushed */
19 1 
MIRP[10100]	/* MoveIndirectRelPt */
NPUSHW[ ]	/* 13 values pushed */
7 19 23 19 39 19 55 19 71 19 87 19 6 
DELTAP1[ ]	/* DeltaExceptionP1 */
NPUSHW[ ]	/* 5 values pushed */
102 19 118 19 2 
DELTAP1[ ]	/* DeltaExceptionP1 */
PUSHW[ ]	/* 3 values pushed */
24 30 0 
SRP1[ ]	/* SetRefPoint1 */
SRP2[ ]	/* SetRefPoint2 */
IP[ ]	/* InterpolatePts */
IUP[0]	/* InterpolateUntPts */
IUP[1]	/* InterpolateUntPts */";
};
width = 609;
}
);
note = C;
unicode = 67;
},
{
glyphname = D;
layers = (
{
layerId = m01;
shapes = (
{
closed = 1;
nodes = (
(88,7,l),
(135,7,l),
(248,7,ls),
(320,6,o),
(428,52,o),
(499,138,o),
(534,261,o),
(534,337,qs),
(534,413,o),
(495,533,o),
(422,616,o),
(316,660,o),
(250,660,qs),
(91,660,l),
(88,655,l)
);
},
{
closed = 1;
nodes = (
(370,545,o),
(420,489,o),
(447,400,o),
(447,337,qs),
(447,271,o),
(416,177,o),
(364,119,o),
(297,92,o),
(261,93,qs),
(237,94,o),
(191,92,o),
(171,94,q),
(171,572,l),
(188,574,o),
(233,573,o),
(256,572,qs),
(299,571,o)
);
}
);
userData = {
assembly = "PUSHW[ ]	/* 1 value pushed */
32 
MDAP[1]	/* MoveDirectAbsPt */
PUSHW[ ]	/* 1 value pushed */
27 
MDAP[1]	/* MoveDirectAbsPt */
PUSHW[ ]	/* 1 value pushed */
32 
SRP0[ ]	/* SetRefPoint0 */
PUSHW[ ]	/* 1 value pushed */
13 
MDRP[10000]	/* MoveDirectRelPt */
PUSHW[ ]	/* 1 value pushed */
13 
MDAP[1]	/* MoveDirectAbsPt */
PUSHW[ ]	/* 1 value pushed */
0 
MDRP[10000]	/* MoveDirectRelPt */
PUSHW[ ]	/* 1 value pushed */
0 
MDAP[1]	/* MoveDirectAbsPt */
NPUSHW[ ]	/* 5 values pushed */
106 27 122 27 2 
DELTAP1[ ]	/* DeltaExceptionP1 */
NPUSHW[ ]	/* 13 values pushed */
9 27 25 27 41 27 57 27 73 27 89 27 6 
DELTAP1[ ]	/* DeltaExceptionP1 */
PUSHW[ ]	/* 1 value pushed */
27 
SRP0[ ]	/* SetRefPoint0 */
PUSHW[ ]	/* 2 values pushed */
6 2 
MIRP[10100]	/* MoveIndirectRelPt */
PUSHW[ ]	/* 1 value pushed */
13 
SRP0[ ]	/* SetRefPoint0 */
PUSHW[ ]	/* 2 values pushed */
19 2 
MIRP[10100]	/* MoveIndirectRelPt */
PUSHW[ ]	/* 1 value pushed */
6 
SRP0[ ]	/* SetRefPoint0 */
PUSHW[ ]	/* 1 value pushed */
33 
MDRP[11100]	/* MoveDirectRelPt */
SVTCA[0]	/* SetFreedomAndProjectionVectorToAxis */
PUSHW[ ]	/* 4 values pushed */
22 1 11 4 
CALL[ ]	/* CallFunction */
PUSHW[ ]	/* 4 values pushed */
1 1 15 4 
CALL[ ]	/* CallFunction */
PUSHW[ ]	/* 1 value pushed */
11 
SRP0[ ]	/* SetRefPoint0 */
PUSHW[ ]	/* 1 value pushed */
13 
MDRP[10000]	/* MoveDirectRelPt */
PUSHW[ ]	/* 1 value pushed */
15 
SRP0[ ]	/* SetRefPoint0 */
PUSHW[ ]	/* 1 value pushed */
18 
MDRP[10000]	/* MoveDirectRelPt */
PUSHW[ ]	/* 1 value pushed */
22 
SRP0[ ]	/* SetRefPoint0 */
PUSHW[ ]	/* 1 value pushed */
19 
MDRP[10000]	/* MoveDirectRelPt */
PUSHW[ ]	/* 1 value pushed */
19 
MDAP[1]	/* MoveDirectAbsPt */
IUP[0]	/* InterpolateUntPts */
IUP[1]	/* InterpolateUntPts */";
};
width = 609;
}
);
note = D;
unicode = 68;
},
{
glyphname = E;
layers = (
{
layerId = m01;
shapes = (
{
closed = 1;
nodes = (
(472,0,l),
(472,89,l),
(219,89,l),
(219,295,l),
(447,295,l),
(447,385,l),
(219,385,l),
(219,576,l),
(464,576,l),
(464,664,l),
(132,664,l),
(132,0,l)
);
}
);
userData = {
assembly = "PUSHW[ ]	/* 4 values pushed */
3 2 0 4 
CALL[ ]	/* CallFunction */
PUSHW[ ]	/* 1 value pushed */
3 
SRP0[ ]	/* SetRefPoint0 */
PUSHW[ ]	/* 1 value pushed */
7 
MDRP[10000]	/* MoveDirectRelPt */
SVTCA[0]	/* SetFreedomAndProjectionVectorToAxis */
PUSHW[ ]	/* 1 value pushed */
0 
RCVT[ ]	/* ReadCVT */
IF[ ]	/* If */
PUSHW[ ]	/* 1 value pushed */
0 
MDAP[1]	/* MoveDirectAbsPt */
ELSE[ ]	/* Else */
PUSHW[ ]	/* 2 values pushed */
0 5 
MIAP[0]	/* MoveIndirectAbsPt */
EIF[ ]	/* EndIf */
PUSHW[ ]	/* 1 value pushed */
0 
RCVT[ ]	/* ReadCVT */
IF[ ]	/* If */
PUSHW[ ]	/* 1 value pushed */
10 
MDAP[1]	/* MoveDirectAbsPt */
ELSE[ ]	/* Else */
PUSHW[ ]	/* 2 values pushed */
10 3 
MIAP[0]	/* MoveIndirectAbsPt */
EIF[ ]	/* EndIf */
PUSHW[ ]	/* 4 values pushed */
5 1 6 4 
CALL[ ]	/* CallFunction */
PUSHW[ ]	/* 1 value pushed */
0 
SRP0[ ]	/* SetRefPoint0 */
PUSHW[ ]	/* 2 values pushed */
2 1 
MIRP[10100]	/* MoveIndirectRelPt */
PUSHW[ ]	/* 1 value pushed */
10 
SRP0[ ]	/* SetRefPoint0 */
PUSHW[ ]	/* 2 values pushed */
8 1 
MIRP[10100]	/* MoveIndirectRelPt */
IUP[0]	/* InterpolateUntPts */
IUP[1]	/* InterpolateUntPts */";
};
width = 609;
}
);
note = E;
unicode = 69;
},
{
glyphname = F;
layers = (
{
layerId = m01;
shapes = (
{
closed = 1;
nodes = (
(258,0,l),
(258,285,l),
(478,285,l),
(478,375,l),
(258,375,l),
(258,576,l),
(495,576,l),
(495,664,l),
(171,664,l),
(171,0,l)
);
}
);
userData = {
assembly = "PUSHW[ ]	/* 4 values pushed */
3 2 0 4 
CALL[ ]	/* CallFunction */
PUSHW[ ]	/* 1 value pushed */
3 
SRP0[ ]	/* SetRefPoint0 */
PUSHW[ ]	/* 1 value pushed */
7 
MDRP[10000]	/* MoveDirectRelPt */
SVTCA[0]	/* SetFreedomAndProjectionVectorToAxis */
PUSHW[ ]	/* 1 value pushed */
0 
RCVT[ ]	/* ReadCVT */
IF[ ]	/* If */
PUSHW[ ]	/* 1 value pushed */
0 
MDAP[1]	/* MoveDirectAbsPt */
ELSE[ ]	/* Else */
PUSHW[ ]	/* 2 values pushed */
0 5 
MIAP[0]	/* MoveIndirectAbsPt */
EIF[ ]	/* EndIf */
PUSHW[ ]	/* 1 value pushed */
0 
RCVT[ ]	/* ReadCVT */
IF[ ]	/* If */
PUSHW[ ]	/* 1 value pushed */
8 
MDAP[1]	/* MoveDirectAbsPt */
ELSE[ ]	/* Else */
PUSHW[ ]	/* 2 values pushed */
8 3 
MIAP[0]	/* MoveIndirectAbsPt */
EIF[ ]	/* EndIf */
PUSHW[ ]	/* 4 values pushed */
5 1 6 4 
CALL[ ]	/* CallFunction */
PUSHW[ ]	/* 1 value pushed */
0 
SRP0[ ]	/* SetRefPoint0 */
PUSHW[ ]	/* 2 values pushed */
2 1 
MIRP[10100]	/* MoveIndirectRelPt */
IUP[0]	/* InterpolateUntPts */
IUP[1]	/* InterpolateUntPts */";
};
width = 609;
}
);
note = F;
unicode = 70;
},
{
glyphname = G;
layers = (
{
layerId = m01;
shapes = (
{
closed = 1;
nodes = (
(425,270,l),
(425,90,l),
(411,85,o),
(376,78,o),
(352,78,qs),
(314,78,o),
(244,109,o),
(190,172,o),
(158,266,o),
(158,329,qs),
(158,399,o),
(187,495,o),
(238,555,o),
(307,581,o),
(348,581,qs),
(383,581,o),
(435,571,o),
(453,565,qs),
(474,558,o),
(490,550,q),
(490,648,l),
(475,656,o),
(454,662,qs),
(436,667,o),
(384,676,o),
(350,676,qs),
(289,676,o),
(186,629,o),
(111,540,o),
(69,412,o),
(69,332,qs),
(69,251,o),
(111,123,o),
(184,34,o),
(282,-13,o),
(338,-13,qs),
(379,-13,o),
(441,1,o),
(463,9,qs),
(489,19,o),
(508,31,q),
(508,359,l),
(331,359,l),
(331,270,l)
);
}
);
userData = {
assembly = "PUSHW[ ]	/* 4 values pushed */
33 2 12 4 
CALL[ ]	/* CallFunction */
PUSHW[ ]	/* 3 values pushed */
1 0 3 
CALL[ ]	/* CallFunction */
PUSHW[ ]	/* 3 values pushed */
23 0 1 
SRP1[ ]	/* SetRefPoint1 */
SRP2[ ]	/* SetRefPoint2 */
IP[ ]	/* InterpolatePts */
NPUSHW[ ]	/* 13 values pushed */
6 33 22 33 38 33 54 33 70 33 86 33 6 
DELTAP1[ ]	/* DeltaExceptionP1 */
NPUSHW[ ]	/* 5 values pushed */
101 33 117 33 2 
DELTAP1[ ]	/* DeltaExceptionP1 */
PUSHW[ ]	/* 1 value pushed */
1 
SRP0[ ]	/* SetRefPoint0 */
PUSHW[ ]	/* 2 values pushed */
41 2 
MIRP[10100]	/* MoveIndirectRelPt */
PUSHW[ ]	/* 1 value pushed */
1 
SRP0[ ]	/* SetRefPoint0 */
PUSHW[ ]	/* 1 value pushed */
45 
MDRP[11100]	/* MoveDirectRelPt */
SVTCA[0]	/* SetFreedomAndProjectionVectorToAxis */
PUSHW[ ]	/* 1 value pushed */
0 
RCVT[ ]	/* ReadCVT */
IF[ ]	/* If */
PUSHW[ ]	/* 1 value pushed */
17 
MDAP[1]	/* MoveDirectAbsPt */
ELSE[ ]	/* Else */
PUSHW[ ]	/* 2 values pushed */
17 5 
MIAP[0]	/* MoveIndirectAbsPt */
EIF[ ]	/* EndIf */
PUSHW[ ]	/* 1 value pushed */
0 
RCVT[ ]	/* ReadCVT */
IF[ ]	/* If */
PUSHW[ ]	/* 1 value pushed */
7 
MDAP[1]	/* MoveDirectAbsPt */
ELSE[ ]	/* Else */
PUSHW[ ]	/* 2 values pushed */
7 3 
MIAP[0]	/* MoveIndirectAbsPt */
EIF[ ]	/* EndIf */
PUSHW[ ]	/* 4 values pushed */
1 1 42 4 
CALL[ ]	/* CallFunction */
PUSHW[ ]	/* 3 values pushed */
23 7 17 
SRP1[ ]	/* SetRefPoint1 */
SRP2[ ]	/* SetRefPoint2 */
IP[ ]	/* InterpolatePts */
PUSHW[ ]	/* 1 value pushed */
17 
SRP0[ ]	/* SetRefPoint0 */
PUSHW[ ]	/* 2 values pushed */
28 1 
MIRP[10100]	/* MoveIndirectRelPt */
NPUSHW[ ]	/* 5 values pushed */
105 28 121 28 2 
DELTAP1[ ]	/* DeltaExceptionP1 */
NPUSHW[ ]	/* 13 values pushed */
8 28 24 28 40 28 56 28 72 28 88 28 6 
DELTAP1[ ]	/* DeltaExceptionP1 */
PUSHW[ ]	/* 1 value pushed */
7 
SRP0[ ]	/* SetRefPoint0 */
PUSHW[ ]	/* 2 values pushed */
38 1 
MIRP[10100]	/* MoveIndirectRelPt */
NPUSHW[ ]	/* 13 values pushed */
7 38 23 38 39 38 55 38 71 38 87 38 6 
DELTAP1[ ]	/* DeltaExceptionP1 */
NPUSHW[ ]	/* 5 values pushed */
102 38 118 38 2 
DELTAP1[ ]	/* DeltaExceptionP1 */
IUP[0]	/* InterpolateUntPts */
IUP[1]	/* InterpolateUntPts */";
};
width = 609;
}
);
note = G;
unicode = 71;
},
{
glyphname = H;
layers = (
{
layerId = m01;
shapes = (
{
closed = 1;
nodes = (
(511,0,l),
(511,664,l),
(424,664,l),
(424,394,l),
(193,394,l),
(193,664,l),
(106,664,l),
(106,0,l),
(193,0,l),
(193,304,l),
(424,304,l),
(424,0,l)
);
}
);
userData = {
assembly = "PUSHW[ ]	/* 1 value pushed */
12 
MDAP[1]	/* MoveDirectAbsPt */
PUSHW[ ]	/* 1 value pushed */
11 
MDAP[1]	/* MoveDirectAbsPt */
PUSHW[ ]	/* 1 value pushed */
12 
SRP0[ ]	/* SetRefPoint0 */
PUSHW[ ]	/* 1 value pushed */
3 
MDRP[10000]	/* MoveDirectRelPt */
PUSHW[ ]	/* 1 value pushed */
3 
MDAP[1]	/* MoveDirectAbsPt */
PUSHW[ ]	/* 2 values pushed */
2 2 
MIRP[10100]	/* MoveIndirectRelPt */
PUSHW[ ]	/* 1 value pushed */
5 
MDRP[10000]	/* MoveDirectRelPt */
PUSHW[ ]	/* 1 value pushed */
11 
SRP0[ ]	/* SetRefPoint0 */
PUSHW[ ]	/* 1 value pushed */
7 
MDRP[10000]	/* MoveDirectRelPt */
PUSHW[ ]	/* 1 value pushed */
11 
SRP0[ ]	/* SetRefPoint0 */
PUSHW[ ]	/* 2 values pushed */
10 2 
MIRP[10100]	/* MoveIndirectRelPt */
PUSHW[ ]	/* 1 value pushed */
13 
MDRP[11100]	/* MoveDirectRelPt */
SVTCA[0]	/* SetFreedomAndProjectionVectorToAxis */
PUSHW[ ]	/* 1 value pushed */
0 
RCVT[ ]	/* ReadCVT */
IF[ ]	/* If */
PUSHW[ ]	/* 1 value pushed */
4 
MDAP[1]	/* MoveDirectAbsPt */
ELSE[ ]	/* Else */
PUSHW[ ]	/* 2 values pushed */
4 5 
MIAP[0]	/* MoveIndirectAbsPt */
EIF[ ]	/* EndIf */
PUSHW[ ]	/* 1 value pushed */
0 
RCVT[ ]	/* ReadCVT */
IF[ ]	/* If */
PUSHW[ ]	/* 1 value pushed */
8 
MDAP[1]	/* MoveDirectAbsPt */
ELSE[ ]	/* Else */
PUSHW[ ]	/* 2 values pushed */
8 5 
MIAP[0]	/* MoveIndirectAbsPt */
EIF[ ]	/* EndIf */
PUSHW[ ]	/* 1 value pushed */
0 
RCVT[ ]	/* ReadCVT */
IF[ ]	/* If */
PUSHW[ ]	/* 1 value pushed */
2 
MDAP[1]	/* MoveDirectAbsPt */
ELSE[ ]	/* Else */
PUSHW[ ]	/* 2 values pushed */
2 3 
MIAP[0]	/* MoveIndirectAbsPt */
EIF[ ]	/* EndIf */
PUSHW[ ]	/* 1 value pushed */
0 
RCVT[ ]	/* ReadCVT */
IF[ ]	/* If */
PUSHW[ ]	/* 1 value pushed */
10 
MDAP[1]	/* MoveDirectAbsPt */
ELSE[ ]	/* Else */
PUSHW[ ]	/* 2 values pushed */
10 3 
MIAP[0]	/* MoveIndirectAbsPt */
EIF[ ]	/* EndIf */
PUSHW[ ]	/* 4 values pushed */
7 1 0 4 
CALL[ ]	/* CallFunction */
IUP[0]	/* InterpolateUntPts */
IUP[1]	/* InterpolateUntPts */";
};
width = 609;
}
);
note = H;
unicode = 72;
},
{
glyphname = I;
layers = (
{
layerId = m01;
shapes = (
{
closed = 1;
nodes = (
(169,582,l),
(262,582,l),
(262,81,l),
(169,81,l),
(169,-1,l),
(440,-1,l),
(440,82,l),
(417,82,o),
(372,81,o),
(349,81,q),
(349,582,l),
(440,582,l),
(440,665,l),
(169,664,l)
);
}
);
userData = {
assembly = "PUSHW[ ]	/* 4 values pushed */
3 2 10 4 
CALL[ ]	/* CallFunction */
SVTCA[0]	/* SetFreedomAndProjectionVectorToAxis */
PUSHW[ ]	/* 1 value pushed */
0 
RCVT[ ]	/* ReadCVT */
IF[ ]	/* If */
PUSHW[ ]	/* 1 value pushed */
0 
MDAP[1]	/* MoveDirectAbsPt */
ELSE[ ]	/* Else */
PUSHW[ ]	/* 2 values pushed */
0 5 
MIAP[0]	/* MoveIndirectAbsPt */
EIF[ ]	/* EndIf */
PUSHW[ ]	/* 1 value pushed */
0 
RCVT[ ]	/* ReadCVT */
IF[ ]	/* If */
PUSHW[ ]	/* 1 value pushed */
7 
MDAP[1]	/* MoveDirectAbsPt */
ELSE[ ]	/* Else */
PUSHW[ ]	/* 2 values pushed */
7 3 
MIAP[0]	/* MoveIndirectAbsPt */
EIF[ ]	/* EndIf */
PUSHW[ ]	/* 1 value pushed */
0 
SRP0[ ]	/* SetRefPoint0 */
PUSHW[ ]	/* 2 values pushed */
1 1 
MIRP[10100]	/* MoveIndirectRelPt */
PUSHW[ ]	/* 1 value pushed */
7 
SRP0[ ]	/* SetRefPoint0 */
PUSHW[ ]	/* 2 values pushed */
3 1 
MIRP[10100]	/* MoveIndirectRelPt */
PUSHW[ ]	/* 1 value pushed */
6 
MDRP[10000]	/* MoveDirectRelPt */
PUSHW[ ]	/* 1 value pushed */
6 
MDAP[1]	/* MoveDirectAbsPt */
PUSHW[ ]	/* 1 value pushed */
9 
MDRP[10000]	/* MoveDirectRelPt */
PUSHW[ ]	/* 1 value pushed */
10 
MDRP[10000]	/* MoveDirectRelPt */
PUSHW[ ]	/* 1 value pushed */
1 
SRP0[ ]	/* SetRefPoint0 */
PUSHW[ ]	/* 1 value pushed */
11 
MDRP[10000]	/* MoveDirectRelPt */
PUSHW[ ]	/* 1 value pushed */
12 
MDRP[10000]	/* MoveDirectRelPt */
IUP[0]	/* InterpolateUntPts */
IUP[1]	/* InterpolateUntPts */";
};
width = 609;
}
);
note = I;
unicode = 73;
},
{
glyphname = J;
layers = (
{
layerId = m01;
shapes = (
{
closed = 1;
nodes = (
(133,583,l),
(352,583,l),
(352,183,ls),
(352,134,o),
(311,84,o),
(259,84,qs),
(239,84,o),
(191,99,o),
(170,108,qs),
(145,119,o),
(121,132,q),
(121,46,l),
(142,30,o),
(165,19,qs),
(185,9,o),
(235,-7,o),
(262,-7,qs),
(301,-7,o),
(366,17,o),
(413,63,o),
(440,128,o),
(440,170,qs),
(440,588,l),
(441,666,l),
(133,665,l)
);
}
);
userData = {
assembly = "PUSHW[ ]	/* 4 values pushed */
2 2 21 4 
CALL[ ]	/* CallFunction */
PUSHW[ ]	/* 1 value pushed */
2 
SRP0[ ]	/* SetRefPoint0 */
PUSHW[ ]	/* 1 value pushed */
0 
MDRP[10000]	/* MoveDirectRelPt */
PUSHW[ ]	/* 1 value pushed */
0 
MDAP[1]	/* MoveDirectAbsPt */
SVTCA[0]	/* SetFreedomAndProjectionVectorToAxis */
PUSHW[ ]	/* 1 value pushed */
0 
RCVT[ ]	/* ReadCVT */
IF[ ]	/* If */
PUSHW[ ]	/* 1 value pushed */
0 
MDAP[1]	/* MoveDirectAbsPt */
ELSE[ ]	/* Else */
PUSHW[ ]	/* 2 values pushed */
0 5 
MIAP[0]	/* MoveIndirectAbsPt */
EIF[ ]	/* EndIf */
PUSHW[ ]	/* 1 value pushed */
0 
RCVT[ ]	/* ReadCVT */
IF[ ]	/* If */
PUSHW[ ]	/* 1 value pushed */
7 
MDAP[1]	/* MoveDirectAbsPt */
ELSE[ ]	/* Else */
PUSHW[ ]	/* 2 values pushed */
7 3 
MIAP[0]	/* MoveIndirectAbsPt */
EIF[ ]	/* EndIf */
PUSHW[ ]	/* 3 values pushed */
13 7 0 
SRP1[ ]	/* SetRefPoint1 */
SRP2[ ]	/* SetRefPoint2 */
IP[ ]	/* InterpolatePts */
PUSHW[ ]	/* 2 values pushed */
18 1 
MIRP[10100]	/* MoveIndirectRelPt */
NPUSHW[ ]	/* 13 values pushed */
7 18 23 18 39 18 55 18 71 18 87 18 6 
DELTAP1[ ]	/* DeltaExceptionP1 */
NPUSHW[ ]	/* 5 values pushed */
102 18 118 18 2 
DELTAP1[ ]	/* DeltaExceptionP1 */
PUSHW[ ]	/* 1 value pushed */
0 
SRP0[ ]	/* SetRefPoint0 */
PUSHW[ ]	/* 2 values pushed */
22 1 
MIRP[10100]	/* MoveIndirectRelPt */
IUP[0]	/* InterpolateUntPts */
IUP[1]	/* InterpolateUntPts */";
};
width = 609;
}
);
note = J;
unicode = 74;
},
{
glyphname = K;
layers = (
{
layerId = m01;
shapes = (
{
closed = 1;
nodes = (
(216,0,l),
(216,321,l),
(451,0,l),
(559,0,l),
(303,340,l),
(552,663,l),
(448,663,l),
(216,360,l),
(216,663,l),
(128,663,l),
(128,0,l)
);
}
);
userData = {
assembly = "PUSHW[ ]	/* 4 values pushed */
1 2 0 4 
CALL[ ]	/* CallFunction */
PUSHW[ ]	/* 1 value pushed */
1 
SRP0[ ]	/* SetRefPoint0 */
PUSHW[ ]	/* 1 value pushed */
8 
MDRP[10000]	/* MoveDirectRelPt */
SVTCA[0]	/* SetFreedomAndProjectionVectorToAxis */
PUSHW[ ]	/* 1 value pushed */
0 
RCVT[ ]	/* ReadCVT */
IF[ ]	/* If */
PUSHW[ ]	/* 1 value pushed */
0 
MDAP[1]	/* MoveDirectAbsPt */
ELSE[ ]	/* Else */
PUSHW[ ]	/* 2 values pushed */
0 5 
MIAP[0]	/* MoveIndirectAbsPt */
EIF[ ]	/* EndIf */
PUSHW[ ]	/* 1 value pushed */
0 
RCVT[ ]	/* ReadCVT */
IF[ ]	/* If */
PUSHW[ ]	/* 1 value pushed */
3 
MDAP[1]	/* MoveDirectAbsPt */
ELSE[ ]	/* Else */
PUSHW[ ]	/* 2 values pushed */
3 5 
MIAP[0]	/* MoveIndirectAbsPt */
EIF[ ]	/* EndIf */
PUSHW[ ]	/* 1 value pushed */
0 
RCVT[ ]	/* ReadCVT */
IF[ ]	/* If */
PUSHW[ ]	/* 1 value pushed */
6 
MDAP[1]	/* MoveDirectAbsPt */
ELSE[ ]	/* Else */
PUSHW[ ]	/* 2 values pushed */
6 3 
MIAP[0]	/* MoveIndirectAbsPt */
EIF[ ]	/* EndIf */
PUSHW[ ]	/* 1 value pushed */
0 
RCVT[ ]	/* ReadCVT */
IF[ ]	/* If */
PUSHW[ ]	/* 1 value pushed */
9 
MDAP[1]	/* MoveDirectAbsPt */
ELSE[ ]	/* Else */
PUSHW[ ]	/* 2 values pushed */
9 3 
MIAP[0]	/* MoveIndirectAbsPt */
EIF[ ]	/* EndIf */
PUSHW[ ]	/* 3 values pushed */
2 6 0 
SRP1[ ]	/* SetRefPoint1 */
SRP2[ ]	/* SetRefPoint2 */
IP[ ]	/* InterpolatePts */
PUSHW[ ]	/* 3 values pushed */
8 6 0 
SRP1[ ]	/* SetRefPoint1 */
SRP2[ ]	/* SetRefPoint2 */
IP[ ]	/* InterpolatePts */
IUP[0]	/* InterpolateUntPts */
IUP[1]	/* InterpolateUntPts */";
};
width = 609;
}
);
note = K;
unicode = 75;
},
{
glyphname = L;
layers = (
{
layerId = m01;
shapes = (
{
closed = 1;
nodes = (
(514,0,l),
(514,89,l),
(266,89,l),
(266,664,l),
(178,664,l),
(178,0,l)
);
}
);
userData = {
assembly = "PUSHW[ ]	/* 4 values pushed */
1 2 0 4 
CALL[ ]	/* CallFunction */
SVTCA[0]	/* SetFreedomAndProjectionVectorToAxis */
PUSHW[ ]	/* 1 value pushed */
0 
RCVT[ ]	/* ReadCVT */
IF[ ]	/* If */
PUSHW[ ]	/* 1 value pushed */
0 
MDAP[1]	/* MoveDirectAbsPt */
ELSE[ ]	/* Else */
PUSHW[ ]	/* 2 values pushed */
0 5 
MIAP[0]	/* MoveIndirectAbsPt */
EIF[ ]	/* EndIf */
PUSHW[ ]	/* 1 value pushed */
0 
RCVT[ ]	/* ReadCVT */
IF[ ]	/* If */
PUSHW[ ]	/* 1 value pushed */
4 
MDAP[1]	/* MoveDirectAbsPt */
ELSE[ ]	/* Else */
PUSHW[ ]	/* 2 values pushed */
4 3 
MIAP[0]	/* MoveIndirectAbsPt */
EIF[ ]	/* EndIf */
PUSHW[ ]	/* 2 values pushed */
2 1 
MIRP[10100]	/* MoveIndirectRelPt */
IUP[0]	/* InterpolateUntPts */
IUP[1]	/* InterpolateUntPts */";
};
width = 609;
}
);
note = L;
unicode = 76;
},
{
glyphname = M;
layers = (
{
layerId = m01;
shapes = (
{
closed = 1;
nodes = (
(438,493,l),
(438,2,l),
(518,2,l),
(518,664,l),
(420,664,l),
(306,322,l),
(188,664,l),
(90,664,l),
(90,2,l),
(170,2,l),
(170,484,l),
(281,152,l),
(323,152,l)
);
}
);
userData = {
assembly = "PUSHW[ ]	/* 1 value pushed */
13 
MDAP[1]	/* MoveDirectAbsPt */
PUSHW[ ]	/* 1 value pushed */
10 
MDAP[1]	/* MoveDirectAbsPt */
PUSHW[ ]	/* 1 value pushed */
13 
SRP0[ ]	/* SetRefPoint0 */
PUSHW[ ]	/* 1 value pushed */
3 
MDRP[10000]	/* MoveDirectRelPt */
PUSHW[ ]	/* 1 value pushed */
3 
MDAP[1]	/* MoveDirectAbsPt */
PUSHW[ ]	/* 2 values pushed */
2 2 
MIRP[10100]	/* MoveIndirectRelPt */
PUSHW[ ]	/* 1 value pushed */
10 
SRP0[ ]	/* SetRefPoint0 */
PUSHW[ ]	/* 2 values pushed */
9 2 
MIRP[10100]	/* MoveIndirectRelPt */
PUSHW[ ]	/* 3 values pushed */
6 3 9 
SRP1[ ]	/* SetRefPoint1 */
SRP2[ ]	/* SetRefPoint2 */
IP[ ]	/* InterpolatePts */
PUSHW[ ]	/* 1 value pushed */
14 
MDRP[11100]	/* MoveDirectRelPt */
SVTCA[0]	/* SetFreedomAndProjectionVectorToAxis */
PUSHW[ ]	/* 1 value pushed */
0 
RCVT[ ]	/* ReadCVT */
IF[ ]	/* If */
PUSHW[ ]	/* 1 value pushed */
4 
MDAP[1]	/* MoveDirectAbsPt */
ELSE[ ]	/* Else */
PUSHW[ ]	/* 2 values pushed */
4 5 
MIAP[0]	/* MoveIndirectAbsPt */
EIF[ ]	/* EndIf */
PUSHW[ ]	/* 1 value pushed */
0 
RCVT[ ]	/* ReadCVT */
IF[ ]	/* If */
PUSHW[ ]	/* 1 value pushed */
7 
MDAP[1]	/* MoveDirectAbsPt */
ELSE[ ]	/* Else */
PUSHW[ ]	/* 2 values pushed */
7 5 
MIAP[0]	/* MoveIndirectAbsPt */
EIF[ ]	/* EndIf */
PUSHW[ ]	/* 1 value pushed */
0 
RCVT[ ]	/* ReadCVT */
IF[ ]	/* If */
PUSHW[ ]	/* 1 value pushed */
2 
MDAP[1]	/* MoveDirectAbsPt */
ELSE[ ]	/* Else */
PUSHW[ ]	/* 2 values pushed */
2 3 
MIAP[0]	/* MoveIndirectAbsPt */
EIF[ ]	/* EndIf */
PUSHW[ ]	/* 1 value pushed */
0 
RCVT[ ]	/* ReadCVT */
IF[ ]	/* If */
PUSHW[ ]	/* 1 value pushed */
9 
MDAP[1]	/* MoveDirectAbsPt */
ELSE[ ]	/* Else */
PUSHW[ ]	/* 2 values pushed */
9 3 
MIAP[0]	/* MoveIndirectAbsPt */
EIF[ ]	/* EndIf */
PUSHW[ ]	/* 3 values pushed */
1 2 4 
SRP1[ ]	/* SetRefPoint1 */
SRP2[ ]	/* SetRefPoint2 */
IP[ ]	/* InterpolatePts */
PUSHW[ ]	/* 3 values pushed */
6 2 4 
SRP1[ ]	/* SetRefPoint1 */
SRP2[ ]	/* SetRefPoint2 */
IP[ ]	/* InterpolatePts */
PUSHW[ ]	/* 3 values pushed */
11 2 4 
SRP1[ ]	/* SetRefPoint1 */
SRP2[ ]	/* SetRefPoint2 */
IP[ ]	/* InterpolatePts */
IUP[0]	/* InterpolateUntPts */
IUP[1]	/* InterpolateUntPts */";
};
width = 609;
}
);
note = M;
unicode = 77;
},
{
glyphname = N;
layers = (
{
layerId = m01;
shapes = (
{
closed = 1;
nodes = (
(189,0,l),
(189,472,l),
(438,1,l),
(516,0,l),
(516,664,l),
(429,664,l),
(429,189,l),
(171,664,l),
(102,664,l),
(102,0,l)
);
}
);
userData = {
assembly = "PUSHW[ ]	/* 1 value pushed */
10 
MDAP[1]	/* MoveDirectAbsPt */
PUSHW[ ]	/* 1 value pushed */
2 
MDAP[1]	/* MoveDirectAbsPt */
PUSHW[ ]	/* 1 value pushed */
10 
SRP0[ ]	/* SetRefPoint0 */
PUSHW[ ]	/* 1 value pushed */
0 
MDRP[10000]	/* MoveDirectRelPt */
PUSHW[ ]	/* 1 value pushed */
0 
MDAP[1]	/* MoveDirectAbsPt */
PUSHW[ ]	/* 1 value pushed */
2 
SRP0[ ]	/* SetRefPoint0 */
PUSHW[ ]	/* 2 values pushed */
5 2 
MIRP[10100]	/* MoveIndirectRelPt */
PUSHW[ ]	/* 1 value pushed */
0 
SRP0[ ]	/* SetRefPoint0 */
PUSHW[ ]	/* 2 values pushed */
7 2 
MIRP[10100]	/* MoveIndirectRelPt */
PUSHW[ ]	/* 1 value pushed */
5 
SRP0[ ]	/* SetRefPoint0 */
PUSHW[ ]	/* 1 value pushed */
11 
MDRP[11100]	/* MoveDirectRelPt */
SVTCA[0]	/* SetFreedomAndProjectionVectorToAxis */
PUSHW[ ]	/* 1 value pushed */
0 
RCVT[ ]	/* ReadCVT */
IF[ ]	/* If */
PUSHW[ ]	/* 1 value pushed */
0 
MDAP[1]	/* MoveDirectAbsPt */
ELSE[ ]	/* Else */
PUSHW[ ]	/* 2 values pushed */
0 5 
MIAP[0]	/* MoveIndirectAbsPt */
EIF[ ]	/* EndIf */
PUSHW[ ]	/* 1 value pushed */
0 
RCVT[ ]	/* ReadCVT */
IF[ ]	/* If */
PUSHW[ ]	/* 1 value pushed */
3 
MDAP[1]	/* MoveDirectAbsPt */
ELSE[ ]	/* Else */
PUSHW[ ]	/* 2 values pushed */
3 5 
MIAP[0]	/* MoveIndirectAbsPt */
EIF[ ]	/* EndIf */
PUSHW[ ]	/* 1 value pushed */
0 
RCVT[ ]	/* ReadCVT */
IF[ ]	/* If */
PUSHW[ ]	/* 1 value pushed */
5 
MDAP[1]	/* MoveDirectAbsPt */
ELSE[ ]	/* Else */
PUSHW[ ]	/* 2 values pushed */
5 3 
MIAP[0]	/* MoveIndirectAbsPt */
EIF[ ]	/* EndIf */
PUSHW[ ]	/* 1 value pushed */
0 
RCVT[ ]	/* ReadCVT */
IF[ ]	/* If */
PUSHW[ ]	/* 1 value pushed */
8 
MDAP[1]	/* MoveDirectAbsPt */
ELSE[ ]	/* Else */
PUSHW[ ]	/* 2 values pushed */
8 3 
MIAP[0]	/* MoveIndirectAbsPt */
EIF[ ]	/* EndIf */
PUSHW[ ]	/* 3 values pushed */
2 5 0 
SRP1[ ]	/* SetRefPoint1 */
SRP2[ ]	/* SetRefPoint2 */
IP[ ]	/* InterpolatePts */
PUSHW[ ]	/* 3 values pushed */
7 5 0 
SRP1[ ]	/* SetRefPoint1 */
SRP2[ ]	/* SetRefPoint2 */
IP[ ]	/* InterpolatePts */
IUP[0]	/* InterpolateUntPts */
IUP[1]	/* InterpolateUntPts */";
};
width = 609;
}
);
note = N;
unicode = 78;
},
{
glyphname = O;
layers = (
{
layerId = m01;
shapes = (
{
closed = 1;
nodes = (
(59,136,o),
(128,43,o),
(232,-11,o),
(304,-11,qs),
(376,-11,o),
(481,43,o),
(550,136,o),
(583,262,o),
(583,333,qs),
(583,405,o),
(548,530,o),
(479,623,o),
(374,677,o),
(304,677,qs),
(235,677,o),
(130,623,o),
(61,530,o),
(26,405,o),
(26,333,qs),
(26,262,o)
);
},
{
closed = 1;
nodes = (
(139,477,o),
(184,546,o),
(254,587,o),
(304,587,qs),
(354,587,o),
(425,546,o),
(469,477,o),
(489,384,o),
(489,333,qs),
(489,282,o),
(469,190,o),
(425,121,o),
(354,80,o),
(304,80,qs),
(255,80,o),
(185,121,o),
(140,190,o),
(119,282,o),
(119,333,qs),
(119,384,o)
);
}
);
userData = {
assembly = "PUSHW[ ]	/* 1 value pushed */
40 
MDAP[1]	/* MoveDirectAbsPt */
PUSHW[ ]	/* 1 value pushed */
30 
MDAP[1]	/* MoveDirectAbsPt */
PUSHW[ ]	/* 1 value pushed */
40 
SRP0[ ]	/* SetRefPoint0 */
PUSHW[ ]	/* 1 value pushed */
0 
MDRP[10000]	/* MoveDirectRelPt */
PUSHW[ ]	/* 1 value pushed */
0 
MDAP[1]	/* MoveDirectAbsPt */
NPUSHW[ ]	/* 5 values pushed */
106 30 122 30 2 
DELTAP1[ ]	/* DeltaExceptionP1 */
NPUSHW[ ]	/* 13 values pushed */
9 30 25 30 41 30 57 30 73 30 89 30 6 
DELTAP1[ ]	/* DeltaExceptionP1 */
PUSHW[ ]	/* 1 value pushed */
30 
SRP0[ ]	/* SetRefPoint0 */
PUSHW[ ]	/* 2 values pushed */
10 2 
MIRP[10100]	/* MoveIndirectRelPt */
PUSHW[ ]	/* 1 value pushed */
0 
SRP0[ ]	/* SetRefPoint0 */
PUSHW[ ]	/* 2 values pushed */
20 2 
MIRP[10100]	/* MoveIndirectRelPt */
NPUSHW[ ]	/* 13 values pushed */
6 20 22 20 38 20 54 20 70 20 86 20 6 
DELTAP1[ ]	/* DeltaExceptionP1 */
NPUSHW[ ]	/* 5 values pushed */
101 20 117 20 2 
DELTAP1[ ]	/* DeltaExceptionP1 */
PUSHW[ ]	/* 1 value pushed */
10 
SRP0[ ]	/* SetRefPoint0 */
PUSHW[ ]	/* 1 value pushed */
41 
MDRP[11100]	/* MoveDirectRelPt */
SVTCA[0]	/* SetFreedomAndProjectionVectorToAxis */
PUSHW[ ]	/* 1 value pushed */
0 
RCVT[ ]	/* ReadCVT */
IF[ ]	/* If */
PUSHW[ ]	/* 1 value pushed */
5 
MDAP[1]	/* MoveDirectAbsPt */
ELSE[ ]	/* Else */
PUSHW[ ]	/* 2 values pushed */
5 5 
MIAP[0]	/* MoveIndirectAbsPt */
EIF[ ]	/* EndIf */
PUSHW[ ]	/* 1 value pushed */
0 
RCVT[ ]	/* ReadCVT */
IF[ ]	/* If */
PUSHW[ ]	/* 1 value pushed */
15 
MDAP[1]	/* MoveDirectAbsPt */
ELSE[ ]	/* Else */
PUSHW[ ]	/* 2 values pushed */
15 3 
MIAP[0]	/* MoveIndirectAbsPt */
EIF[ ]	/* EndIf */
PUSHW[ ]	/* 2 values pushed */
25 1 
MIRP[10100]	/* MoveIndirectRelPt */
NPUSHW[ ]	/* 13 values pushed */
7 25 23 25 39 25 55 25 71 25 87 25 6 
DELTAP1[ ]	/* DeltaExceptionP1 */
NPUSHW[ ]	/* 5 values pushed */
102 25 118 25 2 
DELTAP1[ ]	/* DeltaExceptionP1 */
PUSHW[ ]	/* 1 value pushed */
5 
SRP0[ ]	/* SetRefPoint0 */
PUSHW[ ]	/* 2 values pushed */
35 1 
MIRP[10100]	/* MoveIndirectRelPt */
NPUSHW[ ]	/* 5 values pushed */
105 35 121 35 2 
DELTAP1[ ]	/* DeltaExceptionP1 */
NPUSHW[ ]	/* 13 values pushed */
8 35 24 35 40 35 56 35 72 35 88 35 6 
DELTAP1[ ]	/* DeltaExceptionP1 */
IUP[0]	/* InterpolateUntPts */
IUP[1]	/* InterpolateUntPts */";
};
width = 609;
}
);
note = O;
unicode = 79;
},
{
glyphname = P;
layers = (
{
layerId = m01;
shapes = (
{
closed = 1;
nodes = (
(239,0,l),
(239,249,l),
(249,248,o),
(292,248,o),
(307,248,qs),
(350,248,o),
(432,273,o),
(497,325,o),
(536,407,o),
(536,463,qs),
(536,562,o),
(424,666,o),
(316,663,qs),
(282,662,o),
(224,662,o),
(202,662,qs),
(176,662,o),
(156,663,q),
(156,0,l)
);
},
{
closed = 1;
nodes = (
(386,569,o),
(425,540,o),
(448,493,o),
(448,458,qs),
(448,428,o),
(425,383,o),
(386,353,o),
(334,340,o),
(305,341,qs),
(290,342,o),
(250,340,o),
(239,342,q),
(239,580,l),
(254,581,o),
(297,581,o),
(311,581,qs),
(337,581,o)
);
}
);
userData = {
assembly = "PUSHW[ ]	/* 1 value pushed */
36 
MDAP[1]	/* MoveDirectAbsPt */
PUSHW[ ]	/* 1 value pushed */
31 
MDAP[1]	/* MoveDirectAbsPt */
PUSHW[ ]	/* 1 value pushed */
36 
SRP0[ ]	/* SetRefPoint0 */
PUSHW[ ]	/* 1 value pushed */
0 
MDRP[10000]	/* MoveDirectRelPt */
PUSHW[ ]	/* 1 value pushed */
0 
MDAP[1]	/* MoveDirectAbsPt */
NPUSHW[ ]	/* 5 values pushed */
106 31 122 31 2 
DELTAP1[ ]	/* DeltaExceptionP1 */
NPUSHW[ ]	/* 13 values pushed */
9 31 25 31 41 31 57 31 73 31 89 31 6 
DELTAP1[ ]	/* DeltaExceptionP1 */
PUSHW[ ]	/* 1 value pushed */
31 
SRP0[ ]	/* SetRefPoint0 */
PUSHW[ ]	/* 2 values pushed */
8 2 
MIRP[10100]	/* MoveIndirectRelPt */
PUSHW[ ]	/* 1 value pushed */
0 
SRP0[ ]	/* SetRefPoint0 */
PUSHW[ ]	/* 2 values pushed */
22 2 
MIRP[10100]	/* MoveIndirectRelPt */
PUSHW[ ]	/* 1 value pushed */
16 
MDRP[10000]	/* MoveDirectRelPt */
PUSHW[ ]	/* 1 value pushed */
8 
SRP0[ ]	/* SetRefPoint0 */
PUSHW[ ]	/* 1 value pushed */
37 
MDRP[11100]	/* MoveDirectRelPt */
SVTCA[0]	/* SetFreedomAndProjectionVectorToAxis */
PUSHW[ ]	/* 1 value pushed */
0 
RCVT[ ]	/* ReadCVT */
IF[ ]	/* If */
PUSHW[ ]	/* 1 value pushed */
0 
MDAP[1]	/* MoveDirectAbsPt */
ELSE[ ]	/* Else */
PUSHW[ ]	/* 2 values pushed */
0 5 
MIAP[0]	/* MoveIndirectAbsPt */
EIF[ ]	/* EndIf */
PUSHW[ ]	/* 1 value pushed */
0 
RCVT[ ]	/* ReadCVT */
IF[ ]	/* If */
PUSHW[ ]	/* 1 value pushed */
2 
MDAP[1]	/* MoveDirectAbsPt */
ELSE[ ]	/* Else */
PUSHW[ ]	/* 2 values pushed */
2 5 
MIAP[0]	/* MoveIndirectAbsPt */
EIF[ ]	/* EndIf */
PUSHW[ ]	/* 1 value pushed */
0 
RCVT[ ]	/* ReadCVT */
IF[ ]	/* If */
PUSHW[ ]	/* 1 value pushed */
5 
MDAP[1]	/* MoveDirectAbsPt */
ELSE[ ]	/* Else */
PUSHW[ ]	/* 2 values pushed */
5 5 
MIAP[0]	/* MoveIndirectAbsPt */
EIF[ ]	/* EndIf */
PUSHW[ ]	/* 1 value pushed */
0 
RCVT[ ]	/* ReadCVT */
IF[ ]	/* If */
PUSHW[ ]	/* 1 value pushed */
17 
MDAP[1]	/* MoveDirectAbsPt */
ELSE[ ]	/* Else */
PUSHW[ ]	/* 2 values pushed */
17 3 
MIAP[0]	/* MoveIndirectAbsPt */
EIF[ ]	/* EndIf */
PUSHW[ ]	/* 4 values pushed */
26 1 13 4 
CALL[ ]	/* CallFunction */
PUSHW[ ]	/* 1 value pushed */
13 
SRP0[ ]	/* SetRefPoint0 */
PUSHW[ ]	/* 1 value pushed */
16 
MDRP[10000]	/* MoveDirectRelPt */
PUSHW[ ]	/* 1 value pushed */
16 
MDAP[1]	/* MoveDirectAbsPt */
PUSHW[ ]	/* 1 value pushed */
5 
SRP0[ ]	/* SetRefPoint0 */
PUSHW[ ]	/* 2 values pushed */
19 1 
MIRP[10100]	/* MoveIndirectRelPt */
NPUSHW[ ]	/* 5 values pushed */
105 19 121 19 2 
DELTAP1[ ]	/* DeltaExceptionP1 */
NPUSHW[ ]	/* 13 values pushed */
8 19 24 19 40 19 56 19 72 19 88 19 6 
DELTAP1[ ]	/* DeltaExceptionP1 */
PUSHW[ ]	/* 1 value pushed */
22 
MDRP[10000]	/* MoveDirectRelPt */
PUSHW[ ]	/* 1 value pushed */
22 
MDAP[1]	/* MoveDirectAbsPt */
IUP[0]	/* InterpolateUntPts */
IUP[1]	/* InterpolateUntPts */";
};
width = 609;
}
);
note = P;
unicode = 80;
},
{
glyphname = Q;
layers = (
{
layerId = m01;
shapes = (
{
closed = 1;
nodes = (
(100,143,o),
(153,50,o),
(239,-4,o),
(301,-4,qs),
(319,-4,o),
(347,1,o),
(372,10,o),
(395,24,o),
(408,34,q),
(505,-88,l),
(555,-19,l),
(466,93,l),
(497,141,o),
(527,268,o),
(527,340,qs),
(527,412,o),
(502,537,o),
(448,630,o),
(362,684,o),
(301,684,qs),
(241,684,o),
(156,630,o),
(101,537,o),
(76,412,o),
(76,340,qs),
(76,268,o)
);
},
{
closed = 1;
nodes = (
(169,484,o),
(202,553,o),
(257,594,o),
(301,594,qs),
(344,594,o),
(400,553,o),
(432,484,o),
(445,391,o),
(445,340,qs),
(445,291,o),
(429,197,o),
(412,164,q),
(313,294,l),
(263,225,l),
(271,214,o),
(297,181,o),
(324,146,o),
(350,112,o),
(358,102,q),
(344,94,o),
(322,87,o),
(301,87,qs),
(259,87,o),
(203,128,o),
(170,197,o),
(157,289,o),
(157,340,qs),
(157,391,o)
);
}
);
userData = {
assembly = "PUSHW[ ]	/* 1 value pushed */
54 
MDAP[1]	/* MoveDirectAbsPt */
PUSHW[ ]	/* 1 value pushed */
44 
MDAP[1]	/* MoveDirectAbsPt */
PUSHW[ ]	/* 1 value pushed */
54 
SRP0[ ]	/* SetRefPoint0 */
PUSHW[ ]	/* 1 value pushed */
0 
MDRP[10000]	/* MoveDirectRelPt */
PUSHW[ ]	/* 1 value pushed */
0 
MDAP[1]	/* MoveDirectAbsPt */
NPUSHW[ ]	/* 5 values pushed */
106 44 122 44 2 
DELTAP1[ ]	/* DeltaExceptionP1 */
NPUSHW[ ]	/* 13 values pushed */
9 44 25 44 41 44 57 44 73 44 89 44 6 
DELTAP1[ ]	/* DeltaExceptionP1 */
PUSHW[ ]	/* 1 value pushed */
44 
SRP0[ ]	/* SetRefPoint0 */
PUSHW[ ]	/* 2 values pushed */
10 2 
MIRP[10100]	/* MoveIndirectRelPt */
PUSHW[ ]	/* 3 values pushed */
15 44 10 
SRP1[ ]	/* SetRefPoint1 */
SRP2[ ]	/* SetRefPoint2 */
IP[ ]	/* InterpolatePts */
PUSHW[ ]	/* 1 value pushed */
0 
SRP0[ ]	/* SetRefPoint0 */
PUSHW[ ]	/* 2 values pushed */
26 2 
MIRP[10100]	/* MoveIndirectRelPt */
NPUSHW[ ]	/* 13 values pushed */
6 26 22 26 38 26 54 26 70 26 86 26 6 
DELTAP1[ ]	/* DeltaExceptionP1 */
NPUSHW[ ]	/* 5 values pushed */
101 26 117 26 2 
DELTAP1[ ]	/* DeltaExceptionP1 */
PUSHW[ ]	/* 3 values pushed */
40 0 10 
SRP1[ ]	/* SetRefPoint1 */
SRP2[ ]	/* SetRefPoint2 */
IP[ ]	/* InterpolatePts */
PUSHW[ ]	/* 3 values pushed */
41 0 10 
SRP1[ ]	/* SetRefPoint1 */
SRP2[ ]	/* SetRefPoint2 */
IP[ ]	/* InterpolatePts */
PUSHW[ ]	/* 1 value pushed */
10 
SRP0[ ]	/* SetRefPoint0 */
PUSHW[ ]	/* 1 value pushed */
55 
MDRP[11100]	/* MoveDirectRelPt */
SVTCA[0]	/* SetFreedomAndProjectionVectorToAxis */
PUSHW[ ]	/* 1 value pushed */
15 
MDAP[1]	/* MoveDirectAbsPt */
PUSHW[ ]	/* 1 value pushed */
0 
RCVT[ ]	/* ReadCVT */
IF[ ]	/* If */
PUSHW[ ]	/* 1 value pushed */
21 
MDAP[1]	/* MoveDirectAbsPt */
ELSE[ ]	/* Else */
PUSHW[ ]	/* 2 values pushed */
21 3 
MIAP[0]	/* MoveIndirectAbsPt */
EIF[ ]	/* EndIf */
PUSHW[ ]	/* 4 values pushed */
5 1 49 4 
CALL[ ]	/* CallFunction */
PUSHW[ ]	/* 1 value pushed */
21 
SRP0[ ]	/* SetRefPoint0 */
PUSHW[ ]	/* 2 values pushed */
31 1 
MIRP[10100]	/* MoveIndirectRelPt */
NPUSHW[ ]	/* 13 values pushed */
7 31 23 31 39 31 55 31 71 31 87 31 6 
DELTAP1[ ]	/* DeltaExceptionP1 */
NPUSHW[ ]	/* 5 values pushed */
102 31 118 31 2 
DELTAP1[ ]	/* DeltaExceptionP1 */
IUP[0]	/* InterpolateUntPts */
IUP[1]	/* InterpolateUntPts */";
};
width = 609;
}
);
note = Q;
unicode = 81;
},
{
glyphname = R;
layers = (
{
layerId = m01;
shapes = (
{
closed = 1;
nodes = (
(287,214,l),
(457,-19,l),
(573,-19,ls),
(572,-19,o),
(543,17,o),
(499,71,o),
(448,134,o),
(404,188,o),
(376,224,o),
(376,224,q),
(405,234,o),
(456,271,o),
(495,325,o),
(517,395,o),
(517,439,qs),
(517,487,o),
(492,569,o),
(441,628,o),
(362,661,o),
(308,661,qs),
(133,661,l),
(133,0,l),
(222,0,l),
(222,214,l),
(233,214,l)
);
},
{
closed = 1;
nodes = (
(363,567,o),
(423,499,o),
(423,433,qs),
(423,374,o),
(366,300,o),
(312,300,qs),
(306,300,o),
(275,299,o),
(245,299,o),
(222,299,o),
(223,300,q),
(223,567,l),
(237,567,l),
(295,567,ls)
);
}
);
userData = {
assembly = "PUSHW[ ]	/* 1 value pushed */
39 
MDAP[1]	/* MoveDirectAbsPt */
PUSHW[ ]	/* 1 value pushed */
35 
MDAP[1]	/* MoveDirectAbsPt */
PUSHW[ ]	/* 1 value pushed */
39 
SRP0[ ]	/* SetRefPoint0 */
PUSHW[ ]	/* 1 value pushed */
2 
MDRP[10000]	/* MoveDirectRelPt */
PUSHW[ ]	/* 1 value pushed */
2 
MDAP[1]	/* MoveDirectAbsPt */
PUSHW[ ]	/* 2 values pushed */
27 2 
MIRP[10100]	/* MoveIndirectRelPt */
PUSHW[ ]	/* 1 value pushed */
0 
MDRP[10000]	/* MoveDirectRelPt */
PUSHW[ ]	/* 1 value pushed */
0 
MDAP[1]	/* MoveDirectAbsPt */
NPUSHW[ ]	/* 5 values pushed */
106 35 122 35 2 
DELTAP1[ ]	/* DeltaExceptionP1 */
NPUSHW[ ]	/* 13 values pushed */
9 35 25 35 41 35 57 35 73 35 89 35 6 
DELTAP1[ ]	/* DeltaExceptionP1 */
PUSHW[ ]	/* 1 value pushed */
35 
SRP0[ ]	/* SetRefPoint0 */
PUSHW[ ]	/* 2 values pushed */
9 2 
MIRP[10100]	/* MoveIndirectRelPt */
PUSHW[ ]	/* 1 value pushed */
40 
MDRP[11100]	/* MoveDirectRelPt */
SVTCA[0]	/* SetFreedomAndProjectionVectorToAxis */
PUSHW[ ]	/* 1 value pushed */
21 
MDAP[1]	/* MoveDirectAbsPt */
PUSHW[ ]	/* 1 value pushed */
0 
RCVT[ ]	/* ReadCVT */
IF[ ]	/* If */
PUSHW[ ]	/* 1 value pushed */
1 
MDAP[1]	/* MoveDirectAbsPt */
ELSE[ ]	/* Else */
PUSHW[ ]	/* 2 values pushed */
1 3 
MIAP[0]	/* MoveIndirectAbsPt */
EIF[ ]	/* EndIf */
PUSHW[ ]	/* 4 values pushed */
4 1 38 4 
CALL[ ]	/* CallFunction */
PUSHW[ ]	/* 1 value pushed */
38 
SRP0[ ]	/* SetRefPoint0 */
PUSHW[ ]	/* 1 value pushed */
26 
MDRP[10000]	/* MoveDirectRelPt */
IUP[0]	/* InterpolateUntPts */
IUP[1]	/* InterpolateUntPts */";
};
width = 609;
}
);
note = R;
unicode = 82;
},
{
glyphname = S;
layers = (
{
layerId = m01;
shapes = (
{
closed = 1;
nodes = (
(504,557,o),
(484,591,qs),
(475,606,o),
(450,634,o),
(414,656,o),
(366,669,o),
(336,669,qs),
(243,669,o),
(139,572,o),
(139,481,qs),
(139,448,o),
(159,397,o),
(193,356,o),
(238,324,o),
(263,311,qs),
(341,273,o),
(424,218,o),
(424,183,qs),
(424,165,o),
(410,130,o),
(383,101,o),
(342,81,o),
(314,79,qs),
(267,75,o),
(213,115,o),
(208,147,q),
(112,147,l),
(112,133,o),
(122,81,o),
(160,29,o),
(237,-9,o),
(305,-8,qs),
(404,-7,o),
(520,96,o),
(520,188,qs),
(520,225,o),
(494,281,o),
(451,323,o),
(394,356,o),
(364,371,qs),
(332,387,o),
(284,413,o),
(252,438,o),
(237,467,o),
(237,486,qs),
(237,531,o),
(289,583,o),
(334,581,qs),
(366,580,o),
(414,538,o),
(419,512,q),
(510,512,l)
);
}
);
userData = {
assembly = "PUSHW[ ]	/* 1 value pushed */
52 
MDAP[1]	/* MoveDirectAbsPt */
PUSHW[ ]	/* 1 value pushed */
33 
MDAP[1]	/* MoveDirectAbsPt */
NPUSHW[ ]	/* 5 values pushed */
106 33 122 33 2 
DELTAP1[ ]	/* DeltaExceptionP1 */
NPUSHW[ ]	/* 13 values pushed */
9 33 25 33 41 33 57 33 73 33 89 33 6 
DELTAP1[ ]	/* DeltaExceptionP1 */
PUSHW[ ]	/* 1 value pushed */
0 
MDRP[10000]	/* MoveDirectRelPt */
PUSHW[ ]	/* 1 value pushed */
0 
MDAP[1]	/* MoveDirectAbsPt */
PUSHW[ ]	/* 1 value pushed */
52 
SRP0[ ]	/* SetRefPoint0 */
PUSHW[ ]	/* 1 value pushed */
41 
MDRP[10000]	/* MoveDirectRelPt */
PUSHW[ ]	/* 1 value pushed */
41 
MDAP[1]	/* MoveDirectAbsPt */
PUSHW[ ]	/* 2 values pushed */
6 2 
MIRP[10100]	/* MoveIndirectRelPt */
NPUSHW[ ]	/* 13 values pushed */
6 6 22 6 38 6 54 6 70 6 86 6 6 
DELTAP1[ ]	/* DeltaExceptionP1 */
NPUSHW[ ]	/* 5 values pushed */
101 6 117 6 2 
DELTAP1[ ]	/* DeltaExceptionP1 */
PUSHW[ ]	/* 1 value pushed */
33 
SRP0[ ]	/* SetRefPoint0 */
PUSHW[ ]	/* 2 values pushed */
16 2 
MIRP[10100]	/* MoveIndirectRelPt */
PUSHW[ ]	/* 1 value pushed */
53 
MDRP[11100]	/* MoveDirectRelPt */
SVTCA[0]	/* SetFreedomAndProjectionVectorToAxis */
PUSHW[ ]	/* 1 value pushed */
0 
RCVT[ ]	/* ReadCVT */
IF[ ]	/* If */
PUSHW[ ]	/* 1 value pushed */
44 
MDAP[1]	/* MoveDirectAbsPt */
ELSE[ ]	/* Else */
PUSHW[ ]	/* 2 values pushed */
44 5 
MIAP[0]	/* MoveIndirectAbsPt */
EIF[ ]	/* EndIf */
PUSHW[ ]	/* 1 value pushed */
0 
RCVT[ ]	/* ReadCVT */
IF[ ]	/* If */
PUSHW[ ]	/* 1 value pushed */
19 
MDAP[1]	/* MoveDirectAbsPt */
ELSE[ ]	/* Else */
PUSHW[ ]	/* 2 values pushed */
19 3 
MIAP[0]	/* MoveIndirectAbsPt */
EIF[ ]	/* EndIf */
PUSHW[ ]	/* 1 value pushed */
44 
SRP0[ ]	/* SetRefPoint0 */
PUSHW[ ]	/* 2 values pushed */
0 1 
MIRP[10100]	/* MoveIndirectRelPt */
PUSHW[ ]	/* 1 value pushed */
44 
SRP0[ ]	/* SetRefPoint0 */
PUSHW[ ]	/* 2 values pushed */
3 1 
MIRP[10100]	/* MoveIndirectRelPt */
NPUSHW[ ]	/* 5 values pushed */
105 3 121 3 2 
DELTAP1[ ]	/* DeltaExceptionP1 */
NPUSHW[ ]	/* 13 values pushed */
8 3 24 3 40 3 56 3 72 3 88 3 6 
DELTAP1[ ]	/* DeltaExceptionP1 */
PUSHW[ ]	/* 1 value pushed */
19 
SRP0[ ]	/* SetRefPoint0 */
PUSHW[ ]	/* 2 values pushed */
24 1 
MIRP[10100]	/* MoveIndirectRelPt */
PUSHW[ ]	/* 1 value pushed */
19 
SRP0[ ]	/* SetRefPoint0 */
PUSHW[ ]	/* 2 values pushed */
28 1 
MIRP[10100]	/* MoveIndirectRelPt */
NPUSHW[ ]	/* 13 values pushed */
7 28 23 28 39 28 55 28 71 28 87 28 6 
DELTAP1[ ]	/* DeltaExceptionP1 */
NPUSHW[ ]	/* 5 values pushed */
102 28 118 28 2 
DELTAP1[ ]	/* DeltaExceptionP1 */
IUP[0]	/* InterpolateUntPts */
IUP[1]	/* InterpolateUntPts */";
};
width = 609;
}
);
note = S;
unicode = 83;
},
{
glyphname = T;
layers = (
{
layerId = m01;
shapes = (
{
closed = 1;
nodes = (
(258,576,l),
(258,0,l),
(349,0,l),
(349,576,l),
(531,576,l),
(531,664,l),
(78,664,l),
(78,576,l)
);
}
);
userData = {
assembly = "PUSHW[ ]	/* 4 values pushed */
4 2 5 4 
CALL[ ]	/* CallFunction */
SVTCA[0]	/* SetFreedomAndProjectionVectorToAxis */
PUSHW[ ]	/* 1 value pushed */
0 
RCVT[ ]	/* ReadCVT */
IF[ ]	/* If */
PUSHW[ ]	/* 1 value pushed */
0 
MDAP[1]	/* MoveDirectAbsPt */
ELSE[ ]	/* Else */
PUSHW[ ]	/* 2 values pushed */
0 5 
MIAP[0]	/* MoveIndirectAbsPt */
EIF[ ]	/* EndIf */
PUSHW[ ]	/* 1 value pushed */
0 
RCVT[ ]	/* ReadCVT */
IF[ ]	/* If */
PUSHW[ ]	/* 1 value pushed */
4 
MDAP[1]	/* MoveDirectAbsPt */
ELSE[ ]	/* Else */
PUSHW[ ]	/* 2 values pushed */
4 3 
MIAP[0]	/* MoveIndirectAbsPt */
EIF[ ]	/* EndIf */
PUSHW[ ]	/* 1 value pushed */
0 
SRP0[ ]	/* SetRefPoint0 */
PUSHW[ ]	/* 2 values pushed */
2 1 
MIRP[10100]	/* MoveIndirectRelPt */
PUSHW[ ]	/* 1 value pushed */
6 
MDRP[10000]	/* MoveDirectRelPt */
PUSHW[ ]	/* 1 value pushed */
7 
MDRP[10000]	/* MoveDirectRelPt */
IUP[0]	/* InterpolateUntPts */
IUP[1]	/* InterpolateUntPts */";
};
width = 609;
}
);
note = T;
unicode = 84;
},
{
glyphname = U;
layers = (
{
layerId = m01;
shapes = (
{
closed = 1;
nodes = (
(89,163,o),
(110,88,o),
(159,27,o),
(241,-12,o),
(302,-12,qs),
(363,-12,o),
(447,27,o),
(498,88,o),
(520,164,o),
(520,200,qs),
(520,665,l),
(432,665,l),
(432,219,ls),
(432,193,o),
(418,144,o),
(386,105,o),
(337,82,o),
(302,82,qs),
(266,82,o),
(217,105,o),
(189,144,o),
(177,193,o),
(177,219,qs),
(177,665,l),
(89,665,l),
(89,200,ls)
);
}
);
userData = {
assembly = "PUSHW[ ]	/* 1 value pushed */
26 
MDAP[1]	/* MoveDirectAbsPt */
PUSHW[ ]	/* 1 value pushed */
12 
MDAP[1]	/* MoveDirectAbsPt */
PUSHW[ ]	/* 1 value pushed */
26 
SRP0[ ]	/* SetRefPoint0 */
PUSHW[ ]	/* 1 value pushed */
0 
MDRP[10000]	/* MoveDirectRelPt */
PUSHW[ ]	/* 1 value pushed */
0 
MDAP[1]	/* MoveDirectAbsPt */
PUSHW[ ]	/* 2 values pushed */
1 2 
MIRP[10100]	/* MoveIndirectRelPt */
PUSHW[ ]	/* 1 value pushed */
12 
SRP0[ ]	/* SetRefPoint0 */
PUSHW[ ]	/* 2 values pushed */
15 2 
MIRP[10100]	/* MoveIndirectRelPt */
PUSHW[ ]	/* 1 value pushed */
27 
MDRP[11100]	/* MoveDirectRelPt */
SVTCA[0]	/* SetFreedomAndProjectionVectorToAxis */
PUSHW[ ]	/* 1 value pushed */
0 
RCVT[ ]	/* ReadCVT */
IF[ ]	/* If */
PUSHW[ ]	/* 1 value pushed */
0 
MDAP[1]	/* MoveDirectAbsPt */
ELSE[ ]	/* Else */
PUSHW[ ]	/* 2 values pushed */
0 5 
MIAP[0]	/* MoveIndirectAbsPt */
EIF[ ]	/* EndIf */
PUSHW[ ]	/* 1 value pushed */
0 
RCVT[ ]	/* ReadCVT */
IF[ ]	/* If */
PUSHW[ ]	/* 1 value pushed */
13 
MDAP[1]	/* MoveDirectAbsPt */
ELSE[ ]	/* Else */
PUSHW[ ]	/* 2 values pushed */
13 5 
MIAP[0]	/* MoveIndirectAbsPt */
EIF[ ]	/* EndIf */
PUSHW[ ]	/* 1 value pushed */
0 
RCVT[ ]	/* ReadCVT */
IF[ ]	/* If */
PUSHW[ ]	/* 1 value pushed */
20 
MDAP[1]	/* MoveDirectAbsPt */
ELSE[ ]	/* Else */
PUSHW[ ]	/* 2 values pushed */
20 3 
MIAP[0]	/* MoveIndirectAbsPt */
EIF[ ]	/* EndIf */
PUSHW[ ]	/* 2 values pushed */
7 1 
MIRP[10100]	/* MoveIndirectRelPt */
NPUSHW[ ]	/* 13 values pushed */
7 7 23 7 39 7 55 7 71 7 87 7 6 
DELTAP1[ ]	/* DeltaExceptionP1 */
NPUSHW[ ]	/* 5 values pushed */
102 7 118 7 2 
DELTAP1[ ]	/* DeltaExceptionP1 */
IUP[0]	/* InterpolateUntPts */
IUP[1]	/* InterpolateUntPts */";
};
width = 609;
}
);
note = U;
unicode = 85;
},
{
glyphname = V;
layers = (
{
layerId = m01;
shapes = (
{
closed = 1;
nodes = (
(567,664,l),
(472,664,l),
(317,182,ls),
(310,162,o),
(305,138,q),
(303,149,o),
(296,171,o),
(293,182,qs),
(138,664,l),
(43,664,l),
(267,0,l),
(343,0,l)
);
}
);
userData = {
assembly = "SVTCA[0]	/* SetFreedomAndProjectionVectorToAxis */
PUSHW[ ]	/* 1 value pushed */
0 
RCVT[ ]	/* ReadCVT */
IF[ ]	/* If */
PUSHW[ ]	/* 1 value pushed */
1 
MDAP[1]	/* MoveDirectAbsPt */
ELSE[ ]	/* Else */
PUSHW[ ]	/* 2 values pushed */
1 5 
MIAP[0]	/* MoveIndirectAbsPt */
EIF[ ]	/* EndIf */
PUSHW[ ]	/* 1 value pushed */
0 
RCVT[ ]	/* ReadCVT */
IF[ ]	/* If */
PUSHW[ ]	/* 1 value pushed */
9 
MDAP[1]	/* MoveDirectAbsPt */
ELSE[ ]	/* Else */
PUSHW[ ]	/* 2 values pushed */
9 5 
MIAP[0]	/* MoveIndirectAbsPt */
EIF[ ]	/* EndIf */
PUSHW[ ]	/* 1 value pushed */
0 
RCVT[ ]	/* ReadCVT */
IF[ ]	/* If */
PUSHW[ ]	/* 1 value pushed */
0 
MDAP[1]	/* MoveDirectAbsPt */
ELSE[ ]	/* Else */
PUSHW[ ]	/* 2 values pushed */
0 3 
MIAP[0]	/* MoveIndirectAbsPt */
EIF[ ]	/* EndIf */
PUSHW[ ]	/* 3 values pushed */
6 0 1 
SRP1[ ]	/* SetRefPoint1 */
SRP2[ ]	/* SetRefPoint2 */
IP[ ]	/* InterpolatePts */
IUP[0]	/* InterpolateUntPts */
IUP[1]	/* InterpolateUntPts */";
};
width = 609;
}
);
note = V;
unicode = 86;
},
{
glyphname = W;
layers = (
{
layerId = m01;
shapes = (
{
closed = 1;
nodes = (
(195,189,l),
(171,664,l),
(94,664,l),
(123,2,l),
(215,2,l),
(306,327,l),
(400,2,l),
(492,2,l),
(514,664,l),
(436,664,l),
(420,177,l),
(323,504,l),
(281,504,l)
);
}
);
userData = {
assembly = "SVTCA[0]	/* SetFreedomAndProjectionVectorToAxis */
PUSHW[ ]	/* 1 value pushed */
0 
RCVT[ ]	/* ReadCVT */
IF[ ]	/* If */
PUSHW[ ]	/* 1 value pushed */
2 
MDAP[1]	/* MoveDirectAbsPt */
ELSE[ ]	/* Else */
PUSHW[ ]	/* 2 values pushed */
2 5 
MIAP[0]	/* MoveIndirectAbsPt */
EIF[ ]	/* EndIf */
PUSHW[ ]	/* 1 value pushed */
0 
RCVT[ ]	/* ReadCVT */
IF[ ]	/* If */
PUSHW[ ]	/* 1 value pushed */
9 
MDAP[1]	/* MoveDirectAbsPt */
ELSE[ ]	/* Else */
PUSHW[ ]	/* 2 values pushed */
9 5 
MIAP[0]	/* MoveIndirectAbsPt */
EIF[ ]	/* EndIf */
PUSHW[ ]	/* 1 value pushed */
0 
RCVT[ ]	/* ReadCVT */
IF[ ]	/* If */
PUSHW[ ]	/* 1 value pushed */
4 
MDAP[1]	/* MoveDirectAbsPt */
ELSE[ ]	/* Else */
PUSHW[ ]	/* 2 values pushed */
4 3 
MIAP[0]	/* MoveIndirectAbsPt */
EIF[ ]	/* EndIf */
PUSHW[ ]	/* 1 value pushed */
0 
RCVT[ ]	/* ReadCVT */
IF[ ]	/* If */
PUSHW[ ]	/* 1 value pushed */
7 
MDAP[1]	/* MoveDirectAbsPt */
ELSE[ ]	/* Else */
PUSHW[ ]	/* 2 values pushed */
7 3 
MIAP[0]	/* MoveIndirectAbsPt */
EIF[ ]	/* EndIf */
PUSHW[ ]	/* 3 values pushed */
1 4 2 
SRP1[ ]	/* SetRefPoint1 */
SRP2[ ]	/* SetRefPoint2 */
IP[ ]	/* InterpolatePts */
PUSHW[ ]	/* 3 values pushed */
6 4 2 
SRP1[ ]	/* SetRefPoint1 */
SRP2[ ]	/* SetRefPoint2 */
IP[ ]	/* InterpolatePts */
PUSHW[ ]	/* 3 values pushed */
11 4 2 
SRP1[ ]	/* SetRefPoint1 */
SRP2[ ]	/* SetRefPoint2 */
IP[ ]	/* InterpolatePts */
IUP[0]	/* InterpolateUntPts */
IUP[1]	/* InterpolateUntPts */";
};
width = 609;
}
);
note = W;
unicode = 87;
},
{
glyphname = X;
layers = (
{
layerId = m01;
shapes = (
{
closed = 1;
nodes = (
(305,419,l),
(164,664,l),
(64,664,l),
(256,335,l),
(63,0,l),
(159,0,l),
(305,250,l),
(451,0,l),
(547,0,l),
(354,335,l),
(546,664,l),
(446,664,l)
);
}
);
userData = {
assembly = "SVTCA[0]	/* SetFreedomAndProjectionVectorToAxis */
PUSHW[ ]	/* 1 value pushed */
0 
RCVT[ ]	/* ReadCVT */
IF[ ]	/* If */
PUSHW[ ]	/* 1 value pushed */
0 
MDAP[1]	/* MoveDirectAbsPt */
ELSE[ ]	/* Else */
PUSHW[ ]	/* 2 values pushed */
0 5 
MIAP[0]	/* MoveIndirectAbsPt */
EIF[ ]	/* EndIf */
PUSHW[ ]	/* 1 value pushed */
0 
RCVT[ ]	/* ReadCVT */
IF[ ]	/* If */
PUSHW[ ]	/* 1 value pushed */
8 
MDAP[1]	/* MoveDirectAbsPt */
ELSE[ ]	/* Else */
PUSHW[ ]	/* 2 values pushed */
8 5 
MIAP[0]	/* MoveIndirectAbsPt */
EIF[ ]	/* EndIf */
PUSHW[ ]	/* 1 value pushed */
0 
RCVT[ ]	/* ReadCVT */
IF[ ]	/* If */
PUSHW[ ]	/* 1 value pushed */
2 
MDAP[1]	/* MoveDirectAbsPt */
ELSE[ ]	/* Else */
PUSHW[ ]	/* 2 values pushed */
2 3 
MIAP[0]	/* MoveIndirectAbsPt */
EIF[ ]	/* EndIf */
PUSHW[ ]	/* 1 value pushed */
0 
RCVT[ ]	/* ReadCVT */
IF[ ]	/* If */
PUSHW[ ]	/* 1 value pushed */
5 
MDAP[1]	/* MoveDirectAbsPt */
ELSE[ ]	/* Else */
PUSHW[ ]	/* 2 values pushed */
5 3 
MIAP[0]	/* MoveIndirectAbsPt */
EIF[ ]	/* EndIf */
PUSHW[ ]	/* 3 values pushed */
4 2 0 
SRP1[ ]	/* SetRefPoint1 */
SRP2[ ]	/* SetRefPoint2 */
IP[ ]	/* InterpolatePts */
PUSHW[ ]	/* 3 values pushed */
10 2 0 
SRP1[ ]	/* SetRefPoint1 */
SRP2[ ]	/* SetRefPoint2 */
IP[ ]	/* InterpolatePts */
IUP[0]	/* InterpolateUntPts */
IUP[1]	/* InterpolateUntPts */";
};
width = 609;
}
);
note = X;
unicode = 88;
},
{
glyphname = Y;
layers = (
{
layerId = m01;
shapes = (
{
closed = 1;
nodes = (
(349,0,l),
(349,270,l),
(567,664,l),
(463,664,l),
(320,393,l),
(305,359,l),
(290,391,l),
(147,664,l),
(43,664,l),
(97,569,o),
(205,367,o),
(259,270,q),
(259,0,l)
);
}
);
userData = {
assembly = "PUSHW[ ]	/* 4 values pushed */
10 2 0 4 
CALL[ ]	/* CallFunction */
PUSHW[ ]	/* 3 values pushed */
6 0 10 
SRP1[ ]	/* SetRefPoint1 */
SRP2[ ]	/* SetRefPoint2 */
IP[ ]	/* InterpolatePts */
SVTCA[0]	/* SetFreedomAndProjectionVectorToAxis */
PUSHW[ ]	/* 1 value pushed */
0 
RCVT[ ]	/* ReadCVT */
IF[ ]	/* If */
PUSHW[ ]	/* 1 value pushed */
3 
MDAP[1]	/* MoveDirectAbsPt */
ELSE[ ]	/* Else */
PUSHW[ ]	/* 2 values pushed */
3 5 
MIAP[0]	/* MoveIndirectAbsPt */
EIF[ ]	/* EndIf */
PUSHW[ ]	/* 1 value pushed */
0 
RCVT[ ]	/* ReadCVT */
IF[ ]	/* If */
PUSHW[ ]	/* 1 value pushed */
8 
MDAP[1]	/* MoveDirectAbsPt */
ELSE[ ]	/* Else */
PUSHW[ ]	/* 2 values pushed */
8 5 
MIAP[0]	/* MoveIndirectAbsPt */
EIF[ ]	/* EndIf */
PUSHW[ ]	/* 1 value pushed */
0 
RCVT[ ]	/* ReadCVT */
IF[ ]	/* If */
PUSHW[ ]	/* 1 value pushed */
11 
MDAP[1]	/* MoveDirectAbsPt */
ELSE[ ]	/* Else */
PUSHW[ ]	/* 2 values pushed */
11 3 
MIAP[0]	/* MoveIndirectAbsPt */
EIF[ ]	/* EndIf */
PUSHW[ ]	/* 3 values pushed */
6 11 3 
SRP1[ ]	/* SetRefPoint1 */
SRP2[ ]	/* SetRefPoint2 */
IP[ ]	/* InterpolatePts */
IUP[0]	/* InterpolateUntPts */
IUP[1]	/* InterpolateUntPts */";
};
width = 609;
}
);
note = Y;
unicode = 89;
},
{
glyphname = Z;
layers = (
{
layerId = m01;
shapes = (
{
closed = 1;
nodes = (
(98,54,l),
(98,0,l),
(512,0,l),
(512,90,l),
(218,90,l),
(503,605,l),
(503,664,l),
(98,664,l),
(98,573,l),
(381,573,l)
);
}
);
userData = {
assembly = "SVTCA[0]	/* SetFreedomAndProjectionVectorToAxis */
PUSHW[ ]	/* 1 value pushed */
0 
RCVT[ ]	/* ReadCVT */
IF[ ]	/* If */
PUSHW[ ]	/* 1 value pushed */
1 
MDAP[1]	/* MoveDirectAbsPt */
ELSE[ ]	/* Else */
PUSHW[ ]	/* 2 values pushed */
1 5 
MIAP[0]	/* MoveIndirectAbsPt */
EIF[ ]	/* EndIf */
PUSHW[ ]	/* 1 value pushed */
0 
RCVT[ ]	/* ReadCVT */
IF[ ]	/* If */
PUSHW[ ]	/* 1 value pushed */
6 
MDAP[1]	/* MoveDirectAbsPt */
ELSE[ ]	/* Else */
PUSHW[ ]	/* 2 values pushed */
6 3 
MIAP[0]	/* MoveIndirectAbsPt */
EIF[ ]	/* EndIf */
PUSHW[ ]	/* 1 value pushed */
1 
SRP0[ ]	/* SetRefPoint0 */
PUSHW[ ]	/* 2 values pushed */
0 1 
MIRP[10100]	/* MoveIndirectRelPt */
PUSHW[ ]	/* 1 value pushed */
6 
SRP0[ ]	/* SetRefPoint0 */
PUSHW[ ]	/* 2 values pushed */
4 1 
MIRP[10100]	/* MoveIndirectRelPt */
IUP[0]	/* InterpolateUntPts */
IUP[1]	/* InterpolateUntPts */";
};
width = 609;
}
);
note = Z;
unicode = 90;
},
{
glyphname = hyphen;
layers = (
{
layerId = m01;
shapes = (
{
closed = 1;
nodes = (
(509,394,l),
(100,394,l),
(100,304,l),
(509,304,l)
);
}
);
userData = {
assembly = "SVTCA[0]	/* SetFreedomAndProjectionVectorToAxis */
PUSHW[ ]	/* 4 values pushed */
1 1 0 4 
CALL[ ]	/* CallFunction */
IUP[0]	/* InterpolateUntPts */
IUP[1]	/* InterpolateUntPts */";
};
width = 609;
}
);
note = hyphen;
unicode = 45;
},
{
glyphname = oslash;
lastChange = "2022-09-05 07:03:40 +0000";
layers = (
{
layerId = m01;
shapes = (
{
closed = 1;
nodes = (
(560,652,l),
(504,688,l),
(36,4,l),
(92,-32,l)
);
},
{
closed = 1;
nodes = (
(488,70,o),
(552,223,o),
(552,331,qs),
(552,437,o),
(488,588,o),
(374,668,o),
(300,668,qs),
(226,668,o),
(112,588,o),
(48,437,o),
(48,331,qs),
(48,223,o),
(112,70,o),
(226,-12,o),
(300,-12,qs),
(374,-12,o)
);
},
{
closed = 1;
nodes = (
(175,126,o),
(134,247,o),
(134,331,qs),
(134,414,o),
(175,532,o),
(250,595,o),
(300,595,qs),
(350,595,o),
(425,532,o),
(466,414,o),
(466,331,qs),
(466,247,o),
(425,126,o),
(350,61,o),
(300,61,qs),
(250,61,o)
);
}
);
width = 600;
}
);
unicode = 248;
},
{
glyphname = nil;
lastChange = "2022-09-05 07:04:28 +0000";
layers = (
{
layerId = m01;
shapes = (
{
closed = 1;
nodes = (
(474,67,o),
(529,215,o),
(529,321,qs),
(529,482,o),
(407,650,o),
(300,650,qs),
(194,650,o),
(71,482,o),
(71,321,qs),
(71,215,o),
(127,67,o),
(229,-12,o),
(300,-12,qs),
(371,-12,o)
);
},
{
closed = 1;
nodes = (
(187,111,o),
(148,230,o),
(148,321,qs),
(148,413,o),
(187,529,o),
(256,584,o),
(300,584,qs),
(345,584,o),
(413,529,o),
(452,413,o),
(452,321,qs),
(452,230,o),
(413,111,o),
(345,54,o),
(300,54,qs),
(256,54,o)
);
},
{
closed = 1;
nodes = (
(362,297,o),
(362,328,qs),
(362,359,o),
(326,394,o),
(300,394,qs),
(275,394,o),
(238,359,o),
(238,328,qs),
(238,297,o),
(275,261,o),
(300,261,qs),
(326,261,o)
);
}
